<svg viewBox="0 0 430 282" xmlns="http://www.w3.org/2000/svg"><g fill="#fe09ff"><path d="m99.0855 172.24h-101.0855v4.221h101.0855z"/><path d="m111.721 58.2575h-12.6356v12.6647h12.6356z"/><path d="m111.721 159.575h-12.6356v12.665h12.6356z"/><path d="m111.721 260.892h-12.6356v12.665h12.6356z"/></g><path d="m101.893 58.2575h-2.8076v12.6647h2.8076z" fill="#20f7e9"/><path d="m101.893 159.575h-2.8076v12.665h2.8076z" fill="#20f7e9"/><path d="m101.893 260.892h-2.8076v12.665h2.8076z" fill="#20f7e9"/><path d="m290.825 260.892h18.56c.712-1.593 1.266-3.252 1.657-4.953h-16.468c-.611 2.051-1.943 3.811-3.749 4.953zm-153.945-215.2992h2.808v-.7036h12.13l.295.7036h-2.808l5.363 12.6647h21.186l-6.809-12.6647h2.808l-1.643-3.0395c4.448-1.9732 8.128-5.3544 10.474-9.6252h-60.539v12.6647h-2.808v12.6647h19.515zm82.174 12.6647h18.561c.711-1.5934 1.266-3.2523 1.656-4.9533h-16.468c-.611 2.0511-1.943 3.8108-3.749 4.9533zm-48.914 98.2775h-33.26v-9.625h2.808v-12.664h-19.543v12.664h-2.808v12.665h52.775zm135.96-98.2775h23.671c-5.026-.9428-8.803-5.4036-9.098-12.6647h2.808c0-.2955 0-.591 0-.9147 0-5.6287 2.317-9.7377 5.785-11.75h-20.891c-1.301 3.7789-1.946 7.7529-1.91 11.75v.9147h-2.808c.02 4.3372.849 8.6325 2.443 12.6647zm19.206 101.3175h18.547c.717-1.591 1.272-3.251 1.656-4.953h-16.468c-.611 2.047-1.937 3.805-3.735 4.953zm-62.069-101.3175c-.727-.8444-1.126-1.9238-1.123-3.0395 0-3.8416 2.934-6.6842 12.944-6.6842h3.946v2.9411c-.022 1.3348-.359 2.6455-.984 3.8246-.624 1.179-1.519 2.1928-2.611 2.958h20.232v-12.6647h2.808v-8.0069c.007-1.5624-.134-3.1221-.422-4.6578h-17.437c.849 1.3285 1.275 2.8842 1.222 4.4608v1.6183h-4.044c-12.944 0-21.059 2.4626-25.552 6.5856h-2.808c-1.511 1.4025-2.703 3.1156-3.492 5.0221-.79 1.9064-1.16 3.9614-1.085 6.0243-.001.5406.028 1.0808.084 1.6183zm-35.787 88.6525h2.808v-8.007c.007-1.562-.134-3.122-.421-4.657h-17.466c.838 1.332 1.258 2.886 1.208 4.46v1.619h-4.044c-12.944 0-21.059 2.462-25.538 6.585h-2.808c-1.516 1.4-2.711 3.112-3.504 5.019-.792 1.907-1.163 3.963-1.087 6.028 0 .54.028 1.08.085 1.618h18.251c-.727-.845-1.126-1.924-1.123-3.04 0-3.841 2.934-6.684 12.945-6.684h3.945v2.941c-.012 1.328-.336 2.634-.946 3.812-.61 1.179-1.488 2.196-2.564 2.971h20.273zm-39.072-88.6525h19.248c-1.57-.9102-2.885-2.2048-3.82-3.7626-.936-1.5578-1.462-3.3279-1.529-5.1449v-.3096h37.205v-2.941c0-.1689 0-.3236 0-.5066h2.808c.001-4.3406-.834-8.6406-2.457-12.6647h-16.202c1.376 1.6531 2.144 3.7295 2.176 5.8821h-20.217c.183-2.1553 1.01-4.2053 2.373-5.8821h-17.171c-1.733 3.7965-2.62 7.9265-2.597 12.1018v.6051h-2.808c.034 4.3798 1.056 8.6951 2.991 12.6225zm-6.641 79.1265h16.37c.092-1.13.484-2.214 1.137-3.138h-17.198c-.197 1.034-.301 2.084-.309 3.138zm85.824 9.526h-2.808l-2.218 6.698-2.513-6.698h2.808l-4.788-12.664h-18.49l5.532 12.664h-2.808l5.531 12.665h29.484l4.731-12.665h2.808l4.731-12.664h-17.788zm-97.028 88.653c0 .83.099 1.674.099 2.533.049 3.463-.57 6.904-1.826 10.132h-2.808c-1.199 3.078-3.298 5.721-6.02 7.585-2.723 1.864-5.944 2.861-9.241 2.861s-6.517-.997-9.24-2.861-4.821-4.507-6.021-7.585h2.808c-1.255-3.228-1.875-6.669-1.825-10.132 0-.859 0-1.703.112-2.533h-19.852c0 .872-.084 1.745-.084 2.631-.01 3.385.414 6.757 1.264 10.034h-2.808c1.166 4.587 3.238 8.893 6.093 12.664h59.079c2.855-3.771 4.926-8.077 6.093-12.664h2.808c.849-3.277 1.274-6.649 1.263-10.034 0-.886 0-1.759-.084-2.631zm96.958-202.6349h-17.213c-.197 1.0346-.3 2.0849-.308 3.1381h16.37c.091-1.1293.484-2.2132 1.137-3.1381zm-39.381 202.6349c4.085.619 6.5 4.221 6.5 10.132v2.533h-2.808v12.664h17.297v-12.664h2.808v-7.29c-.004-1.804-.178-3.604-.519-5.375zm117.933-101.317h-16.174c1.376 1.653 2.144 3.729 2.176 5.882h-20.217c.183-2.156 1.01-4.206 2.373-5.882h-17.156c-1.735 3.781-2.621 7.897-2.598 12.059v.605h-2.808c.007 4.392 1.015 8.724 2.949 12.665h19.304c-1.568-.913-2.88-2.209-3.815-3.766s-1.463-3.326-1.534-5.142v-.309h37.205v-2.941c0-.169 0-.324 0-.507h2.808c-.017-4.344-.87-8.644-2.513-12.664zm-.253-89.7649v.5488.5066h-2.808c-.168 7.3033-3.804 11.7219-8.929 12.6647h26.17v-12.6647h2.808v-12.6646h-22.955c3.412 2.0544 5.644 6.079 5.714 11.6092zm28.473 89.8629v-.098h-17.353v12.664h-2.808v12.665h17.353v-5.46c-.036-2.42.2-4.837.702-7.205h2.808c1.783-7.81 7.427-11.06 20.834-9.625v-3.039h-21.536zm28.542-88.7512h-2.808l-2.218 6.6982-2.457-6.6982h2.808l-4.773-12.6647h-18.561l5.532 12.6647h-2.808l5.531 12.6647h29.484l4.717-12.6647h2.808l4.731-12.6647h-17.788zm-91.257 189.9702h-16.146c1.376 1.653 2.144 3.729 2.176 5.882h-20.189c.183-2.155 1.009-4.205 2.373-5.882h-17.199c-1.728 3.783-2.614 7.898-2.597 12.059v.606h-2.808c.018 4.391 1.031 8.722 2.962 12.664h19.249c-1.571-.91-2.885-2.205-3.821-3.762-.935-1.558-1.461-3.328-1.528-5.145v-.31h37.205v-2.941c0-.169 0-.324 0-.506h2.808c0-4.341-.834-8.641-2.457-12.665zm-112.051 12.665h-2.808v12.664h17.283v-12.664h2.808v-.563c0-7.641 3.51-11.427 8.424-12.06h-25.679zm188.988-227.9645-.464-1.2102h-19.29l.534 1.2102zm-188.988 202.6345h17.283v-1.21h-17.255zm130.33-205.1675c-3.778-.0488-7.511.8203-10.881 2.533h21.06c-3.138-1.6581-6.631-2.5273-10.179-2.533zm-30.354 205.1675c-3.837-1.714-7.999-2.578-12.2-2.533-4.108-.017-8.172.847-11.92 2.533zm-179.848 0h21.579c1.543-1.752 3.44-3.155 5.565-4.116 2.126-.962 4.431-1.459 6.762-1.459 2.332 0 4.637.497 6.762 1.459 2.125.961 4.022 2.364 5.565 4.116h21.579c-2.032-4.845-5.122-9.173-9.042-12.664h-2.807c-6.979-5.828-15.775-9.019-24.858-9.019s-17.878 3.191-24.857 9.019h2.808c-3.927 3.487-7.022 7.816-9.056 12.664zm154.437-205.1675c-4.572-.0788-9.112.7832-13.338 2.533h27.265c-4.397-1.8044-9.122-2.6672-13.871-2.533zm35.759 103.8505h24.12c-3.838-1.715-7.999-2.579-12.201-2.533-4.108-.016-8.171.848-11.919 2.533zm35.969-101.3175h17.241v-12.6647h-2.808v-7.5988h-17.241v7.5988h2.808zm11.12 101.3175h17.353v-1.21h-17.353zm-62.154-1.21h-18.406l-.407 1.21h18.294zm-174.611 1.21h19.515v-12.665h-2.808v-7.599h-19.515v7.599h2.808zm0-101.3175h19.515v-6.0791h15.444c4.591 0 8.058 2.4626 8.957 6.0791h19.262c-.371-4.7412-2.353-9.2114-5.615-12.6647h-2.808c-4.465-4.78443-11.232-7.5988-19.221-7.5988h-38.342v7.5988h2.808zm275.556 101.3175v-2.322c-4.084-.145-8.147.649-11.877 2.322zm15.907-102.5277-.407 1.2102h18.35l.449-1.2102zm-177.587 102.5277h19.234l-.463-1.21h-19.305zm-18.519-103.8505c-4.108-.0171-8.172.8465-11.919 2.533h24.12c-3.838-1.7146-7.999-2.5786-12.201-2.533zm4.324 103.8505c-4.409-1.813-9.149-2.676-13.913-2.533-4.572-.08-9.112.782-13.337 2.533zm13.268 98.784c-3.393-.083-6.741.795-9.659 2.533h19.655c-3.046-1.737-6.506-2.612-10.01-2.533zm85.866-149.4428c2.593.8954 5.318 1.3427 8.059 1.3227 2.469-.0109 4.917-.4587 7.231-1.3227zm-105.873 1.3227c3.285.0279 6.557-.4176 9.716-1.3227h-18.982c3.008.8919 6.13 1.3376 9.266 1.3227zm106.253 101.3171c3.28.028 6.547-.417 9.701-1.322h-18.982c3.013.891 6.139 1.336 9.281 1.322zm70.366-100.1069c-2.386 2.3954-5.622 3.7462-8.999 3.7572-2.808 0-6.164-.6051-12.636-3.9542v10.3287h-2.808v6.2901c3.995 1.8326 8.341 2.7645 12.734 2.73 8.564 0 15.444-3.0817 20.414-9.0201h2.808c2.582-3.1611 4.57-6.7656 5.868-10.6383l.759-2.0263h-19.263zm-203.266 98.7849c2.279.885 4.703 1.334 7.146 1.322 2.817.045 5.62-.403 8.284-1.322zm-35.717 102.64c3.492.007 6.97-.438 10.348-1.323h-20.681c3.373.886 6.846 1.331 10.333 1.323zm119.337-203.9578h-15.443c2.278.8858 4.702 1.3345 7.146 1.3227 2.836.0513 5.658-.3964 8.339-1.3227zm14.756 203.9578c3.285.028 6.557-.418 9.715-1.323h-18.939c3.008.892 6.13 1.338 9.266 1.323zm-21.677-89.976h2.808c2.587-3.16 4.58-6.764 5.882-10.638l.758-2.026h-19.262l1.109 2.532c-2.384 2.398-5.621 3.75-8.999 3.758-2.808 0-6.164-.605-12.636-3.955v10.329h-2.808v6.29c4 1.832 8.351 2.764 12.748 2.73 8.564 0 15.43-3.081 20.4-9.02z" fill="#fe09ff"/><path d="m285.209 260.892h18.56c.712-1.593 1.266-3.252 1.657-4.953h-16.468c-.611 2.051-1.943 3.811-3.749 4.953zm-153.945-215.2992h2.808v-.7036h12.131l.294.7036h-2.808l5.364 12.6647h21.185l-6.809-12.6647h2.808l-1.643-3.0395c4.448-1.9732 8.128-5.3544 10.474-9.6252h-60.539v12.6647h-2.808v12.6647h19.515zm82.174 12.6647h18.561c.711-1.5934 1.266-3.2523 1.656-4.9533h-16.468c-.611 2.0511-1.943 3.8108-3.749 4.9533zm-48.914 98.2775h-33.26v-9.625h2.808v-12.664h-19.543v12.664h-2.808v12.665h52.775zm135.96-98.2775h23.671c-5.026-.9428-8.803-5.4036-9.098-12.6647h2.808c0-.2955 0-.591 0-.9147 0-5.6287 2.317-9.7377 5.785-11.75h-20.891c-1.301 3.7789-1.946 7.7529-1.91 11.75v.9147h-2.808c.02 4.3372.849 8.6325 2.443 12.6647zm19.206 101.3175h18.547c.717-1.591 1.272-3.251 1.656-4.953h-16.468c-.611 2.047-1.936 3.805-3.735 4.953zm-62.069-101.3175c-.727-.8444-1.126-1.9238-1.123-3.0395 0-3.8416 2.934-6.6842 12.945-6.6842h3.945v2.9411c-.022 1.3348-.359 2.6455-.983 3.8246-.625 1.179-1.52 2.1928-2.611 2.958h20.231v-12.6647h2.808v-8.0069c.007-1.5624-.134-3.1221-.422-4.6578h-17.437c.849 1.3285 1.275 2.8842 1.222 4.4608v1.6183h-4.044c-12.944 0-21.059 2.4626-25.552 6.5856h-2.808c-1.511 1.4025-2.702 3.1156-3.492 5.0221-.79 1.9064-1.16 3.9614-1.085 6.0243-.001.5406.028 1.0808.084 1.6183zm-35.787 88.6525h2.808v-8.007c.007-1.562-.134-3.122-.421-4.657h-17.465c.837 1.332 1.257 2.886 1.207 4.46v1.619h-4.044c-12.944 0-21.059 2.462-25.538 6.585h-2.808c-1.516 1.4-2.711 3.112-3.504 5.019-.792 1.907-1.163 3.963-1.087 6.028 0 .54.028 1.08.085 1.618h18.251c-.727-.845-1.126-1.924-1.123-3.04 0-3.841 2.934-6.684 12.945-6.684h3.945v2.941c-.012 1.328-.336 2.634-.946 3.812-.61 1.179-1.488 2.196-2.564 2.971h20.273zm-39.072-88.6525h19.248c-1.57-.9102-2.885-2.2048-3.82-3.7626-.936-1.5578-1.462-3.3279-1.529-5.1449v-.3096h37.205v-2.941c0-.1689 0-.3236 0-.5066h2.808c.001-4.3406-.834-8.6406-2.457-12.6647h-16.202c1.376 1.6531 2.144 3.7295 2.176 5.8821h-20.217c.183-2.1553 1.01-4.2053 2.373-5.8821h-17.17c-1.734 3.7965-2.621 7.9265-2.598 12.1018v.6051h-2.808c.034 4.3798 1.056 8.6951 2.991 12.6225zm-6.641 79.1265h16.37c.092-1.13.484-2.214 1.137-3.138h-17.198c-.197 1.034-.301 2.084-.309 3.138zm85.824 9.526h-2.808l-2.218 6.698-2.513-6.698h2.808l-4.788-12.664h-18.49l5.532 12.664h-2.808l5.532 12.665h29.483l4.731-12.665h2.808l4.731-12.664h-17.788zm-97.028 88.653c0 .83.099 1.674.099 2.533.049 3.463-.57 6.904-1.826 10.132h-2.807c-1.2 3.078-3.299 5.721-6.021 7.585-2.723 1.864-5.943 2.861-9.241 2.861-3.297 0-6.517-.997-9.24-2.861s-4.821-4.507-6.021-7.585h2.808c-1.255-3.228-1.875-6.669-1.825-10.132 0-.859 0-1.703.112-2.533h-19.852c0 .872-.084 1.745-.084 2.631-.01 3.385.414 6.757 1.264 10.034h-2.808c1.166 4.587 3.238 8.893 6.093 12.664h59.079c2.855-3.771 4.926-8.077 6.093-12.664h2.808c.849-3.277 1.274-6.649 1.264-10.034 0-.886 0-1.759-.085-2.631zm96.958-202.6349h-17.212c-.198 1.0346-.301 2.0849-.309 3.1381h16.37c.091-1.1293.484-2.2132 1.137-3.1381zm-39.381 202.6349c4.085.619 6.5 4.221 6.5 10.132v2.533h-2.808v12.664h17.297v-12.664h2.808v-7.29c-.004-1.804-.178-3.604-.519-5.375zm117.933-101.317h-16.174c1.376 1.653 2.144 3.729 2.176 5.882h-20.217c.183-2.156 1.01-4.206 2.373-5.882h-17.156c-1.735 3.781-2.621 7.897-2.598 12.059v.605h-2.808c.007 4.392 1.016 8.724 2.949 12.665h19.304c-1.568-.913-2.88-2.209-3.815-3.766s-1.463-3.326-1.534-5.142v-.309h37.205v-2.941c0-.169 0-.324 0-.507h2.808c-.017-4.344-.87-8.644-2.513-12.664zm-.253-89.7649v.5488.5066h-2.808c-.168 7.3033-3.804 11.7219-8.929 12.6647h26.17v-12.6647h2.808v-12.6646h-22.955c3.412 2.0544 5.644 6.079 5.714 11.6092zm28.473 89.8629v-.098h-17.353v12.664h-2.808v12.665h17.353v-5.46c-.036-2.42.2-4.837.702-7.205h2.808c1.783-7.81 7.427-11.06 20.834-9.625v-3.039h-21.536zm28.542-88.7512h-2.808l-2.218 6.6982-2.457-6.6982h2.808l-4.773-12.6647h-18.561l5.532 12.6647h-2.808l5.532 12.6647h29.483l4.717-12.6647h2.808l4.731-12.6647h-17.788zm-91.257 189.9702h-16.146c1.376 1.653 2.144 3.729 2.176 5.882h-20.189c.183-2.155 1.01-4.205 2.373-5.882h-17.199c-1.728 3.783-2.614 7.898-2.597 12.059v.606h-2.808c.018 4.391 1.031 8.722 2.962 12.664h19.249c-1.571-.91-2.885-2.205-3.821-3.762-.935-1.558-1.461-3.328-1.528-5.145v-.31h37.205v-2.941c0-.169 0-.324 0-.506h2.808c0-4.341-.834-8.641-2.457-12.665zm-112.051 12.665h-2.808v12.664h17.283v-12.664h2.808v-.563c0-7.641 3.51-11.427 8.424-12.06h-25.679zm188.988-227.9645-.463-1.2102h-19.291l.534 1.2102zm-188.988 202.6345h17.283v-1.21h-17.255zm130.33-205.1675c-3.778-.0488-7.511.8203-10.881 2.533h21.06c-3.138-1.6581-6.631-2.5273-10.179-2.533zm-30.354 205.1675c-3.837-1.714-7.999-2.578-12.2-2.533-4.108-.017-8.172.847-11.92 2.533zm-179.847 0h21.579c1.542-1.752 3.439-3.155 5.565-4.116 2.125-.962 4.43-1.459 6.761-1.459 2.332 0 4.637.497 6.762 1.459 2.125.961 4.022 2.364 5.565 4.116h21.579c-2.032-4.845-5.121-9.173-9.041-12.664h-2.808c-6.979-5.828-15.775-9.019-24.858-9.019s-17.878 3.191-24.857 9.019h2.808c-3.927 3.487-7.022 7.816-9.055 12.664zm154.436-205.1675c-4.572-.0788-9.112.7832-13.338 2.533h27.265c-4.397-1.8044-9.122-2.6672-13.871-2.533zm35.759 103.8505h24.12c-3.838-1.715-7.999-2.579-12.201-2.533-4.107-.016-8.171.848-11.919 2.533zm35.969-101.3175h17.241v-12.6647h-2.808v-7.5988h-17.241v7.5988h2.808zm11.12 101.3175h17.353v-1.21h-17.353zm-62.154-1.21h-18.406l-.407 1.21h18.294zm-174.611 1.21h19.515v-12.665h-2.808v-7.599h-19.515v7.599h2.808zm0-101.3175h19.515v-6.0791h15.444c4.591 0 8.059 2.4626 8.957 6.0791h19.262c-.371-4.7412-2.353-9.2114-5.615-12.6647h-2.808c-4.465-4.78443-11.232-7.5988-19.221-7.5988h-38.342v7.5988h2.808zm275.556 101.3175v-2.322c-4.084-.145-8.147.649-11.877 2.322zm15.907-102.5277-.407 1.2102h18.35l.449-1.2102zm-177.587 102.5277h19.234l-.463-1.21h-19.305zm-18.519-103.8505c-4.108-.0171-8.172.8465-11.919 2.533h24.12c-3.838-1.7146-7.999-2.5786-12.201-2.533zm4.325 103.8505c-4.41-1.813-9.15-2.676-13.914-2.533-4.572-.08-9.111.782-13.337 2.533zm13.267 98.784c-3.393-.083-6.741.795-9.659 2.533h19.655c-3.046-1.737-6.506-2.612-10.01-2.533zm85.866-149.4428c2.593.8954 5.318 1.3427 8.059 1.3227 2.469-.0109 4.917-.4587 7.231-1.3227zm-105.872 1.3227c3.285.0279 6.556-.4176 9.715-1.3227h-18.982c3.008.8919 6.13 1.3376 9.267 1.3227zm106.252 101.3171c3.28.028 6.547-.417 9.701-1.322h-18.982c3.013.891 6.139 1.336 9.281 1.322zm70.366-100.1069c-2.386 2.3954-5.622 3.7462-8.999 3.7572-2.808 0-6.164-.6051-12.636-3.9542v10.3287h-2.808v6.2901c3.995 1.8326 8.341 2.7645 12.734 2.73 8.564 0 15.444-3.0817 20.414-9.0201h2.808c2.582-3.1611 4.57-6.7656 5.868-10.6383l.759-2.0263h-19.263zm-203.266 98.7849c2.279.885 4.703 1.334 7.146 1.322 2.817.045 5.62-.403 8.284-1.322zm-35.717 102.64c3.492.007 6.97-.438 10.348-1.323h-20.681c3.373.886 6.846 1.331 10.333 1.323zm119.337-203.9578h-15.443c2.278.8858 4.702 1.3345 7.146 1.3227 2.836.0513 5.658-.3964 8.34-1.3227zm14.756 203.9578c3.285.028 6.557-.418 9.716-1.323h-18.94c3.008.892 6.13 1.338 9.266 1.323zm-21.677-89.976h2.808c2.587-3.16 4.58-6.764 5.882-10.638l.759-2.026h-19.263l1.109 2.532c-2.384 2.398-5.621 3.75-8.999 3.758-2.808 0-6.164-.605-12.636-3.955v10.329h-2.808v6.29c4 1.832 8.351 2.764 12.748 2.73 8.564 0 15.43-3.081 20.4-9.02z" fill="#20f7e9"/><path d="m117.337 70.9222h19.515v-12.6647h-2.808v-12.6647h2.808v-.7036h12.13l.295.7036h-2.808l5.363 12.6647h2.808l5.363 12.6647h22.632l-6.809-12.6647h-2.808l-6.809-12.6647h2.808l-1.643-3.0395c4.448-1.9732 8.128-5.3544 10.474-9.6252h2.808c1.776-3.2971 2.693-6.9899 2.667-10.7368 0-.6473 0-1.2946-.098-1.9278h-2.808c-.371-4.7412-2.353-9.2114-5.616-12.6647h-2.808c-4.366-4.78443-11.133-7.5988-19.122-7.5988h-38.342v7.5988h2.808v12.6647h2.808v12.6646h-2.808v12.6647h-2.808v12.6647h2.808zm19.515-56.7378h15.444c4.591 0 8.058 2.4626 8.957 6.0791h2.808c.163.6296.248 1.2772.253 1.9278.005 1.1889-.232 2.3663-.696 3.4603s-1.146 2.0815-2.004 2.9021c-.859.8207-1.875 1.4572-2.987 1.8706s-2.297.5951-3.481.5338h-15.444v-10.6946h-2.808zm-19.515 158.0556h52.775v-12.665h-2.808v-3.04h-33.232v-9.625h2.808v-12.664h2.808v-12.665h-2.808v-12.665h-2.808v-7.599h-19.543v7.599h2.808v12.665h2.808v12.665h-2.808v12.664h-2.808v12.665h2.808zm84.505 0c3.475-1.168 6.447-3.492 8.423-6.586h.408v6.586h16.679v-12.665h-2.808v-12.665h2.808v-8.007c.007-1.562-.134-3.122-.422-4.657h2.808c-.459-2.791-1.621-5.418-3.375-7.634s-4.042-3.948-6.649-5.031h-2.808c-4.409-1.813-9.149-2.676-13.913-2.533-4.572-.08-9.112.782-13.338 2.533h2.808c-5.616 2.476-9.463 6.754-10.516 12.665h-2.807c-.198 1.034-.301 2.084-.309 3.138h16.37c.091-1.13.484-2.214 1.137-3.138h2.808c.777-1.004 1.791-1.797 2.95-2.311 1.159-.513 2.427-.73 3.691-.631 1.255-.103 2.517.112 3.668.626s2.154 1.31 2.916 2.316h-2.808c.838 1.332 1.258 2.886 1.208 4.46v1.619h-4.044c-12.944 0-21.059 2.462-25.538 6.585h-2.808c-1.516 1.4-2.711 3.112-3.504 5.019-.792 1.907-1.163 3.963-1.087 6.028 0 .54.028 1.08.085 1.618h2.808c.275 2.826 1.345 5.517 3.084 7.758 1.74 2.242 4.078 3.943 6.743 4.907h-2.808c2.279.885 4.703 1.334 7.147 1.322 2.816.045 5.619-.403 8.283-1.322zm-9.674-12.665c-.727-.845-1.126-1.924-1.123-3.04 0-3.841 2.934-6.684 12.945-6.684h3.945v2.941c-.017 1.331-.347 2.64-.965 3.819-.617 1.178-1.504 2.194-2.587 2.964h2.808c-2.053 1.444-4.513 2.193-7.02 2.139-.962.037-1.921-.135-2.81-.504-.89-.369-1.689-.927-2.343-1.635zm111.096-101.3175h2.808c1.092 2.9237 2.809 5.5725 5.03 7.7604 2.222 2.1879 4.894 3.8618 7.83 4.9043h-2.808c2.592.8954 5.317 1.3427 8.059 1.3227 2.469-.0109 4.917-.4587 7.231-1.3227h2.807c3.692-1.1989 6.783-3.7731 8.635-7.1908h.098v7.1908h17.269v-12.6647h-2.808v-12.6647h2.808v-12.6647h2.808v-12.6646h-2.808v-12.6647h-2.808v-7.5988h-17.241v7.5988h2.808v12.6647h2.808v5.4739h-.196c-1.247-2.3748-3.213-4.2916-5.616-5.4739h-2.808c-3.151-1.6648-6.659-2.5342-10.221-2.533-3.778-.0488-7.511.8203-10.881 2.533h2.808c-5.012 2.7082-8.797 7.2415-10.572 12.6646h-2.808c-1.3 3.7789-1.946 7.7529-1.909 11.75v.9147h-2.808c.042 4.3417.895 8.6371 2.513 12.6647zm17.381-12.6647c0-.2955 0-.591 0-.9147 0-5.6287 2.317-9.7377 5.784-11.75h2.808c1.656-.9421 3.53-1.4276 5.434-1.4071 1.895-.0258 3.762.4603 5.405 1.4071h-2.808c3.412 1.9982 5.616 6.0228 5.714 11.553v.5488.5066h-2.808c-.168 7.3033-3.804 11.7219-8.929 12.6647h2.808c-.717.1426-1.446.2133-2.176.2111-.703.0009-1.404-.0698-2.092-.2111h-2.808c-5.026-.9428-8.803-5.4036-9.098-12.6647zm-138.066 0c.019 4.3919 1.032 8.7222 2.963 12.6647h2.808c1.552 3.0722 3.728 5.7855 6.387 7.9663 2.66 2.1808 5.744 3.7811 9.056 4.6984h-2.808c3.008.8919 6.13 1.3376 9.266 1.3227 3.285.0279 6.557-.4176 9.716-1.3227h2.808c3.261-.8555 6.288-2.4391 8.853-4.6322s4.602-4.9391 5.959-8.0325h-2.808c.711-1.5934 1.266-3.2523 1.656-4.9533h-16.44c-.611 2.0511-1.943 3.8108-3.749 4.9533h2.808c-1.82 1.0145-3.886 1.5017-5.967 1.4072-1.911.0129-3.793-.472-5.461-1.4072h-2.808c-1.57-.9102-2.885-2.2048-3.82-3.7626-.936-1.5578-1.462-3.3279-1.529-5.1449v-.3096h37.205v-2.941c0-.1689 0-.3236 0-.5066h2.808c.001-4.3406-.834-8.6406-2.457-12.6647h2.808c-2.28-5.611-6.608-10.1401-12.102-12.6646h-2.808c-3.838-1.7146-7.999-2.5786-12.201-2.533-4.108-.0171-8.172.8465-11.919 2.533h2.808c-5.643 2.5451-10.183 7.0406-12.791 12.6646h-2.807c-1.744 3.7943-2.64 7.9245-2.626 12.1018v.6051zm22.548-12.6647h2.808c.945-1.1302 2.13-2.035 3.468-2.6484 1.338-.6135 2.796-.9201 4.268-.8977 1.501-.0339 2.992.2665 4.363.8798 1.372.6132 2.591 1.5239 3.569 2.6663h-2.808c1.376 1.6531 2.144 3.7295 2.176 5.8821h-20.217c.191-2.1584 1.028-4.2087 2.401-5.8821zm39.76 25.3294c.27 2.8183 1.329 5.5028 3.055 7.7437 1.727 2.2409 4.05 3.9468 6.703 4.921h-2.808c2.278.8858 4.702 1.3345 7.146 1.3227 2.817.0448 5.62-.4028 8.283-1.3227h2.808c3.502-1.1534 6.501-3.4787 8.494-6.5857h.407v6.5857h16.666v-12.6647h-2.808v-12.6647h2.808v-8.0069c.007-1.5624-.134-3.1221-.422-4.6578h2.808c-.46-2.7907-1.621-5.4179-3.375-7.6338s-4.042-3.9473-6.649-5.0308h-2.808c-4.414-1.8122-9.159-2.6751-13.927-2.533-4.572-.0788-9.112.7832-13.338 2.533h2.808c-5.616 2.4766-9.463 6.7545-10.502 12.6646h-2.808c-.197 1.0346-.3 2.0849-.309 3.1381h16.371c.091-1.1293.484-2.2132 1.137-3.1381h2.808c.767-.9894 1.765-1.775 2.905-2.2878 1.141-.5128 2.39-.7371 3.637-.6532 1.254-.1053 2.514.1091 3.663.6233 1.149.5143 2.149 1.3116 2.908 2.3177h-2.808c.849 1.3285 1.275 2.8842 1.221 4.4608v1.6183h-4.043c-12.945 0-21.059 2.4626-25.552 6.5856h-2.808c-1.511 1.4025-2.703 3.1156-3.493 5.0221-.79 1.9064-1.159 3.9614-1.084 6.0243-.001.5406.027 1.0808.084 1.6183zm27.335-9.7237h3.946v2.9411c-.022 1.3348-.359 2.6455-.984 3.8246-.624 1.179-1.519 2.1928-2.611 2.958h2.808c-2.054 1.442-4.512 2.1912-7.02 2.1389-.961.0374-1.92-.1345-2.81-.5037-.889-.3692-1.688-.9271-2.342-1.6352h-2.808c-.728-.8444-1.126-1.9238-1.123-3.0395.028-3.8416 2.962-6.6842 12.972-6.6842zm9.828 98.3762 4.731-12.664h2.808l4.718-12.665h-2.808l.463-1.21h-18.42l-.407 1.21h2.808l-4.212 12.665h-2.808l-4.212 12.664h-2.808l-2.218 6.698-2.513-6.698h2.808l-4.788-12.664h2.808l-4.773-12.665h-2.808l-.463-1.21h-19.277l.534 1.21h2.808l5.531 12.665h-2.808l5.532 12.664h-2.808l5.531 12.665h2.808l5.518 12.665h-2.808l1.109 2.532c-2.384 2.398-5.621 3.75-8.999 3.758-2.808 0-6.164-.605-12.636-3.955v10.329h-2.808v6.29c4 1.832 8.351 2.764 12.748 2.73 8.564 0 15.444-3.081 20.4-9.02h2.808c2.587-3.16 4.58-6.764 5.882-10.638l.758-2.026h2.808l4.718-12.665h-2.808l4.731-12.665zm144.707-126.6465.449-1.2102h-18.406l-.407 1.2102h2.808l-4.212 12.6646h-2.808l-4.212 12.6647h-2.808l-2.218 6.6982-2.429-6.6982h2.808l-4.773-12.6647h2.807l-4.773-12.6646h-2.808l-.463-1.2102h-19.389l.534 1.2102h2.807l5.532 12.6646h-2.808l5.532 12.6647h-2.808l5.531 12.6647h2.808l5.532 12.6647h-2.808l1.109 2.5329c-2.386 2.3954-5.622 3.7462-8.999 3.7572-2.808 0-6.164-.6051-12.636-3.9542v10.3287h-2.808v6.2901c3.995 1.8326 8.341 2.7645 12.734 2.73 8.564 0 15.444-3.0817 20.414-9.0201h2.808c2.582-3.1611 4.57-6.7656 5.868-10.6383l.758-2.0263h2.808l4.732-12.6647h-2.808l4.717-12.6647h2.808l4.731-12.6647h2.808l4.732-12.6646zm-92.802 101.3175h-2.808c-3.838-1.715-7.999-2.579-12.201-2.533-4.107-.016-8.171.848-11.919 2.533h2.808c-5.642 2.541-10.179 7.039-12.776 12.665h-2.808c-1.735 3.781-2.621 7.897-2.598 12.059v.605h-2.808c.007 4.392 1.015 8.724 2.949 12.665h2.808c1.552 3.072 3.728 5.785 6.388 7.966 2.659 2.181 5.743 3.781 9.055 4.699h-2.808c3.013.891 6.139 1.336 9.28 1.322 3.281.028 6.548-.417 9.702-1.322h2.808c3.261-.856 6.288-2.44 8.853-4.633s4.602-4.939 5.959-8.032h-2.808c.717-1.591 1.272-3.251 1.656-4.953h-16.454c-.611 2.047-1.937 3.805-3.735 4.953h2.808c-1.822 1.008-3.887 1.495-5.967 1.407-1.916.015-3.803-.47-5.475-1.407h-2.808c-1.568-.913-2.88-2.209-3.815-3.766s-1.463-3.326-1.534-5.142v-.309h37.205v-2.941c0-.169 0-.324 0-.507h2.808c-.004-4.341-.843-8.641-2.471-12.664h2.808c-2.283-5.614-6.616-10.143-12.116-12.665zm-4.704 18.547h-20.217c.183-2.156 1.01-4.206 2.373-5.882h2.808c.947-1.129 2.132-2.033 3.47-2.646 1.338-.614 2.795-.921 4.266-.901 1.501-.034 2.992.267 4.364.88 1.371.613 2.59 1.524 3.568 2.667h-2.808c1.371 1.654 2.134 3.731 2.162 5.882zm-29.764 82.77h-2.808c-3.837-1.714-7.999-2.578-12.2-2.533-4.108-.017-8.172.847-11.92 2.533h2.808c-5.642 2.545-10.182 7.041-12.79 12.665h-2.808c-1.728 3.783-2.614 7.898-2.597 12.059v.606h-2.808c.018 4.391 1.031 8.722 2.962 12.664h2.808c1.553 3.072 3.729 5.786 6.388 7.967 2.66 2.18 5.744 3.781 9.056 4.698h-2.808c3.008.892 6.13 1.338 9.266 1.323 3.285.028 6.557-.418 9.716-1.323h2.807c3.262-.856 6.289-2.439 8.853-4.632 2.565-2.193 4.602-4.939 5.959-8.033h-2.808c.712-1.593 1.266-3.252 1.657-4.953h-16.454c-.611 2.051-1.943 3.811-3.749 4.953h2.808c-1.82 1.015-3.886 1.502-5.967 1.407-1.911.013-3.793-.472-5.461-1.407h-2.808c-1.571-.91-2.885-2.205-3.821-3.762-.935-1.558-1.461-3.328-1.528-5.145v-.31h37.205v-2.941c0-.169 0-.324 0-.506h2.808c0-4.341-.834-8.641-2.457-12.665h2.808c-2.287-5.616-6.625-10.146-12.131-12.665zm-4.703 18.547h-20.203c.183-2.155 1.009-4.205 2.373-5.882h2.808c.945-1.13 2.13-2.035 3.468-2.649 1.338-.613 2.796-.92 4.268-.897 1.501-.034 2.992.266 4.363.879 1.372.614 2.591 1.524 3.569 2.667h-2.808c1.366 1.657 2.124 3.733 2.148 5.882zm-107.347-18.547h-2.808c-2.032-4.845-5.122-9.173-9.042-12.664h-2.807c-6.979-5.828-15.775-9.019-24.858-9.019s-17.878 3.191-24.857 9.019h2.808c-3.927 3.487-7.022 7.816-9.055 12.664h2.807c-1.667 4.029-2.65 8.31-2.906 12.665h-2.808c0 .872-.084 1.745-.084 2.631-.01 3.385.414 6.757 1.264 10.034h-2.808c1.166 4.587 3.238 8.893 6.093 12.664h2.808c4.795 6.271 11.563 10.733 19.206 12.665h-2.808c6.781 1.764 13.899 1.764 20.681 0h2.807c7.638-1.936 14.4-6.398 19.193-12.665h-2.808c2.854-3.771 4.926-8.077 6.093-12.664h2.808c.849-3.277 1.274-6.649 1.263-10.034 0-.886 0-1.759-.084-2.631h2.808c-.256-4.355-1.238-8.636-2.906-12.665zm-19.656 15.198c.05 3.463-.57 6.904-1.825 10.132h-2.808c-1.199 3.078-3.298 5.721-6.02 7.585-2.723 1.864-5.944 2.861-9.241 2.861s-6.517-.997-9.24-2.861-4.821-4.507-6.021-7.585h2.808c-1.255-3.228-1.875-6.669-1.825-10.132 0-.859 0-1.703.112-2.533h2.808c.195-4.604 1.82-9.031 4.647-12.665h-2.808c1.543-1.752 3.44-3.155 5.565-4.116 2.126-.962 4.431-1.459 6.762-1.459 2.332 0 4.637.497 6.762 1.459 2.125.961 4.022 2.364 5.565 4.116h2.808c2.826 3.636 4.454 8.061 4.661 12.665h-2.808c.084.844.197 1.674.197 2.533zm75.225-15.198h-2.808c-3.03-1.727-6.469-2.602-9.954-2.533-3.394-.083-6.742.795-9.659 2.533h2.807c-2.962 1.937-5.268 4.729-6.612 8.007v-8.007h-2.808v-1.21h-17.255v1.21h2.808v12.665h-2.808v12.665h-2.808v12.664h2.808v12.665h17.283v-12.665h-2.808v-12.664h2.808v-.563c0-7.641 3.51-11.427 8.424-12.06h2.808c4.085.619 6.5 4.222 6.5 10.132v2.533h-2.808v12.664h2.808v12.665h17.297v-12.665h-2.808v-12.664h2.808v-7.289c-.004-1.805-.178-3.604-.52-5.376h2.808c-.385-2.591-1.325-5.068-2.755-7.261s-3.315-4.051-5.528-5.446zm-17.746 12.665c.508-.061 1.019-.094 1.53-.099.428.004.855.036 1.278.099zm167.633-116.304c-4.084-.145-8.147.649-11.877 2.322h2.808c-4.648 2.294-7.821 6.374-9.618 12.665v-12.665h-2.808v-1.21h-17.296v1.21h2.808v12.665h-2.808v12.664h-2.808v12.665h2.808v12.665h17.353v-12.665h-2.808v-5.46c-.036-2.42.2-4.837.702-7.205h2.808c1.783-7.81 7.427-11.06 20.834-9.625v-3.039h2.808v-12.665h-2.808zm-21.438 15.085v-.098z" fill="#fff"/><path d="m-2 83.5868h101.0855v-7.0359h-101.0855zm0-12.6646v2.8144h101.0855v-2.8144z" fill="#fe09ff"/><path d="m-2 282h101.0855v-4.222h-101.0855zm0-8.443v1.407h101.0855v-1.407z" fill="#fe09ff"/></svg>
