<svg xmlns="http://www.w3.org/2000/svg" viewBox="0 0 432 432"><defs><style>.cls-1{fill:#fe09ff;}.cls-2{fill:#20f7e9;}.cls-3{fill:#fff;}</style></defs><g id="type"><rect class="cls-1" y="241.98" width="84.24" height="3.51"/><rect class="cls-1" x="84.24" y="147.21" width="10.53" height="10.53"/><rect class="cls-1" x="84.24" y="231.45" width="10.53" height="10.53"/><rect class="cls-1" x="84.24" y="315.68" width="10.53" height="10.53"/><rect class="cls-2" x="84.24" y="147.21" width="2.34" height="10.53"/><rect class="cls-2" x="84.24" y="231.45" width="2.34" height="10.53"/><rect class="cls-2" x="84.24" y="315.68" width="2.34" height="10.53"/><path class="cls-1" d="M244,315.68h15.46a23.27,23.27,0,0,0,1.38-4.13H247.14A7.32,7.32,0,0,1,244,315.68Zm-128.3-179h2.34v-.59h10.11l.25.59h-2.34l4.46,10.53h17.66l-5.68-10.53h2.34l-1.36-2.53a18.59,18.59,0,0,0,8.73-8H101.81v10.53H99.47v10.53h16.26Zm68.49,10.53h15.46a22.74,22.74,0,0,0,1.38-4.13H187.33A7.36,7.36,0,0,1,184.22,147.21Zm-40.77,81.71H115.73v-8h2.34V210.39H101.81v10.53H99.47v10.53h44Zm113.3-81.71h19.73c-4.19-.79-7.34-4.5-7.58-10.53h2.34c0-.25,0-.5,0-.76,0-4.72,1.93-8.1,4.82-9.77H258.65a29.05,29.05,0,0,0-1.59,9.77c0,.26,0,.5,0,.76h-2.34A29.29,29.29,0,0,0,256.75,147.21Zm16,84.24h15.46a22.75,22.75,0,0,0,1.39-4.13H275.86A7.39,7.39,0,0,1,272.75,231.45ZM221,147.21a3.83,3.83,0,0,1-.93-2.53c0-3.2,2.44-5.56,10.78-5.56h3.29v2.44a7.08,7.08,0,0,1-3,5.65h16.9V136.68h2.34V130a20.7,20.7,0,0,0-.35-3.87H235.5a6.58,6.58,0,0,1,1,3.7v1.35h-3.37c-10.79,0-17.54,2.05-21.29,5.48h-2.34a11.89,11.89,0,0,0-3.82,9.18c0,.46,0,.91.07,1.35Zm-29.82,73.71h2.34v-6.66a20.7,20.7,0,0,0-.35-3.87H178.64a6.48,6.48,0,0,1,1,3.7v1.35h-3.37c-10.79,0-17.54,2-21.29,5.48h-2.34a11.89,11.89,0,0,0-3.82,9.18c0,.45,0,.9.07,1.35h15.27a3.86,3.86,0,0,1-.93-2.53c0-3.2,2.44-5.56,10.78-5.56h3.29v2.44a7.08,7.08,0,0,1-3,5.65h16.9Zm-32.57-73.71h16a9,9,0,0,1-4.45-7.42v-.25h31V137.1c0-.15,0-.28,0-.42h2.34a27.74,27.74,0,0,0-2.06-10.53H188a7.78,7.78,0,0,1,1.82,4.88H173a8.87,8.87,0,0,1,2-4.88h-14.3a23.63,23.63,0,0,0-2.17,10c0,.17,0,.34,0,.51h-2.34A24.17,24.17,0,0,0,158.64,147.21ZM153.11,213h13.65a5.19,5.19,0,0,1,1-2.61H153.37A15.49,15.49,0,0,0,153.11,213Zm71.51,7.92h-2.34l-1.84,5.55-2.1-5.55h2.34l-4-10.53h-15.4l4.61,10.53h-2.34l4.61,10.53h24.59l3.94-10.53H239L243,210.39H228.12Zm-80.86,73.7c.05.69.09,1.39.09,2.11a22.35,22.35,0,0,1-1.52,8.42H140a13.66,13.66,0,0,1-25.44,0h2.34a22.35,22.35,0,0,1-1.52-8.42c0-.72,0-1.42.09-2.11H98.94c0,.73-.08,1.45-.08,2.19a33.25,33.25,0,0,0,1,8.34H97.57a29.47,29.47,0,0,0,5.09,10.53h49.22A29.47,29.47,0,0,0,157,305.15h2.34a33.25,33.25,0,0,0,1.05-8.34c0-.74,0-1.46-.08-2.19Zm80.81-168.47H210.23a15.49,15.49,0,0,0-.26,2.61h13.65A5.19,5.19,0,0,1,224.57,126.15ZM191.75,294.62c3.4.52,5.42,3.53,5.42,8.43v2.1h-2.34v10.53h14.4V305.15h2.34v-6.06a22.91,22.91,0,0,0-.43-4.47ZM290,210.39H276.56a7.77,7.77,0,0,1,1.81,4.88H261.52a8.87,8.87,0,0,1,2-4.88H249.2a23.63,23.63,0,0,0-2.17,10c0,.17,0,.34,0,.51h-2.34a24.2,24.2,0,0,0,2.46,10.53h16a9,9,0,0,1-4.46-7.42v-.25h31v-2.44c0-.15,0-.28,0-.42h2.34A27.9,27.9,0,0,0,290,210.39Zm-.21-74.64v.51c0,.14,0,.28,0,.42h-2.34c-.13,6.06-3.17,9.74-7.44,10.53H301.9V136.68h2.34V126.15H285.07C287.91,127.81,289.77,131.15,289.83,135.75Zm23.67,74.72v-.08H299.09v10.53h-2.34v10.53h14.41V226.9a26.7,26.7,0,0,1,.58-6h2.34c1.48-6.5,6.19-9.21,17.36-8v-2.52H313.52A.31.31,0,0,1,313.5,210.47Zm23.83-73.79H335l-1.85,5.56-2.1-5.56h2.34l-4-10.53H314l4.61,10.53h-2.34l4.61,10.53h24.58l3.94-10.53h2.34l3.94-10.53H340.83Zm-76,157.94H247.83a7.89,7.89,0,0,1,1.82,4.89H232.8a8.79,8.79,0,0,1,2-4.89H220.47a23.86,23.86,0,0,0-2.16,10c0,.17,0,.33,0,.5H216a24.13,24.13,0,0,0,2.46,10.53h16a9,9,0,0,1-4.45-7.41V308h31v-2.45c0-.14,0-.27,0-.42h2.34A27.78,27.78,0,0,0,261.31,294.62Zm-93.38,10.53h-2.34v10.53H180V305.15h2.34v-.5c0-6.36,2.93-9.51,7.07-10H167.93ZM325.42,115.62l-.38-1H309l.44,1ZM167.93,284.09h14.41v-1H167.93ZM276.52,113.51a19.51,19.51,0,0,0-9.07,2.11H285A18.22,18.22,0,0,0,276.52,113.51ZM251.23,284.09a24.36,24.36,0,0,0-10.18-2.1,24,24,0,0,0-9.93,2.1Zm-149.87,0h18a13.71,13.71,0,0,1,20.54,0h18a28.92,28.92,0,0,0-7.54-10.52H148a32.31,32.31,0,0,0-41.42,0h2.34A28.92,28.92,0,0,0,101.36,284.09ZM230.1,113.51A27.66,27.66,0,0,0,219,115.62h22.72A28.45,28.45,0,0,0,230.1,113.51Zm29.75,86.35H280a25,25,0,0,0-20.1,0Zm30-84.24h14.41V105.09H301.9V98.77H287.49v6.32h2.34Zm9.26,84.24H313.5v-1H299.09Zm-51.8-1H232l-.34,1h15.29Zm-145.48,1h16.26V189.33h-2.34V183H99.47v6.33h2.34Zm0-84.24h16.26v-5.06H131c3.82,0,6.71,2,7.46,5.06h16a17.22,17.22,0,0,0-4.64-10.53H147.4c-3.7-3.94-9.33-6.32-16-6.32H99.47v6.32h2.34Zm229.63,84.24v-1.94a22.14,22.14,0,0,0-9.89,1.94Zm13.23-85.26-.34,1h15.29l.38-1Zm-148,85.26h16l-.38-1H196.24Zm-15.43-86.35a23.93,23.93,0,0,0-9.93,2.11h20.1A24.16,24.16,0,0,0,181.25,113.51Zm3.6,86.35a28.25,28.25,0,0,0-11.61-2.11,27.66,27.66,0,0,0-11.11,2.11ZM195.9,282a15,15,0,0,0-8.05,2.1H204.2A16.12,16.12,0,0,0,195.9,282Zm71.57-124.25a20.48,20.48,0,0,0,6.71,1.09,17.56,17.56,0,0,0,6-1.09Zm-88.23,1.09a28.89,28.89,0,0,0,8.1-1.09H171.52A27.27,27.27,0,0,0,179.24,158.83Zm88.54,84.24a29.19,29.19,0,0,0,8.09-1.09H260.05A27.29,27.29,0,0,0,267.78,243.07Zm58.63-83.23a10.66,10.66,0,0,1-7.5,3.12c-2.36,0-5.14-.5-10.53-3.28v8.59H306v5.22a25.09,25.09,0,0,0,10.61,2.28c7.14,0,12.87-2.57,17-7.5H336a28.45,28.45,0,0,0,4.9-8.85l.63-1.68h-16ZM157,242a16.2,16.2,0,0,0,6,1.09,20.66,20.66,0,0,0,6.9-1.09Zm-29.77,85.33a33.92,33.92,0,0,0,8.62-1.1H118.65A33.92,33.92,0,0,0,127.27,327.31Zm99.48-169.57H213.9a16.18,16.18,0,0,0,5.94,1.09A20.67,20.67,0,0,0,226.75,157.74Zm12.3,169.57a28.89,28.89,0,0,0,8.1-1.1H231.32A27,27,0,0,0,239.05,327.31ZM221,252.51h2.34a28.45,28.45,0,0,0,4.9-8.85l.63-1.68h-16l.92,2.1a10.66,10.66,0,0,1-7.5,3.12c-2.36,0-5.14-.51-10.53-3.29v8.6h-2.34v5.22A25.1,25.1,0,0,0,203.94,260C211.09,260,216.81,257.44,221,252.51Z"/><path class="cls-2" d="M239.35,315.68h15.46a23.27,23.27,0,0,0,1.38-4.13H242.46A7.32,7.32,0,0,1,239.35,315.68Zm-128.3-179h2.34v-.59H123.5l.25.59h-2.34l4.46,10.53h17.66l-5.68-10.53h2.34l-1.36-2.53a18.59,18.59,0,0,0,8.73-8H97.13v10.53H94.79v10.53h16.26Zm68.49,10.53H195a22.74,22.74,0,0,0,1.38-4.13H182.65A7.36,7.36,0,0,1,179.54,147.21Zm-40.77,81.71H111.05v-8h2.34V210.39H97.13v10.53H94.79v10.53h44Zm113.3-81.71H271.8c-4.19-.79-7.34-4.5-7.58-10.53h2.34c0-.25,0-.5,0-.76,0-4.72,1.93-8.1,4.82-9.77H254a29.05,29.05,0,0,0-1.59,9.77c0,.26,0,.5,0,.76h-2.34A29.29,29.29,0,0,0,252.07,147.21Zm16,84.24h15.46a22.75,22.75,0,0,0,1.39-4.13H271.19A7.45,7.45,0,0,1,268.07,231.45Zm-51.72-84.24a3.83,3.83,0,0,1-.93-2.53c0-3.2,2.44-5.56,10.78-5.56h3.29v2.44a7.08,7.08,0,0,1-3,5.65h16.9V136.68h2.34V130a20.7,20.7,0,0,0-.35-3.87H230.82a6.58,6.58,0,0,1,1,3.7v1.35h-3.37c-10.79,0-17.54,2.05-21.29,5.48h-2.34a11.89,11.89,0,0,0-3.82,9.18c0,.46,0,.91.07,1.35Zm-29.82,73.71h2.34v-6.66a20.7,20.7,0,0,0-.35-3.87H174a6.48,6.48,0,0,1,1,3.7v1.35H171.6c-10.79,0-17.54,2-21.29,5.48H148a11.89,11.89,0,0,0-3.82,9.18c0,.45,0,.9.07,1.35h15.27a3.86,3.86,0,0,1-.93-2.53c0-3.2,2.44-5.56,10.78-5.56h3.29v2.44a7.08,7.08,0,0,1-3,5.65h16.9ZM154,147.21h16a9,9,0,0,1-4.45-7.42v-.25h31V137.1c0-.15,0-.28,0-.42h2.34a27.74,27.74,0,0,0-2.06-10.53H183.34a7.78,7.78,0,0,1,1.82,4.88H168.31a8.87,8.87,0,0,1,2-4.88H156a23.63,23.63,0,0,0-2.17,10c0,.17,0,.34,0,.51H151.5A24.17,24.17,0,0,0,154,147.21ZM148.43,213h13.65a5.19,5.19,0,0,1,.95-2.61H148.69A15.49,15.49,0,0,0,148.43,213Zm71.51,7.92H217.6l-1.84,5.55-2.1-5.55H216l-4-10.53h-15.4l4.61,10.53h-2.34l4.61,10.53h24.59L232,220.92h2.34l3.93-10.53H223.44Zm-80.86,73.7c0,.69.09,1.39.09,2.11a22.35,22.35,0,0,1-1.52,8.42h-2.34a13.66,13.66,0,0,1-25.44,0h2.34a22.35,22.35,0,0,1-1.52-8.42c0-.72,0-1.42.09-2.11H94.26c-.05.73-.08,1.45-.08,2.19a33.25,33.25,0,0,0,1,8.34H92.89A29.47,29.47,0,0,0,98,315.68H147.2a29.47,29.47,0,0,0,5.09-10.53h2.34a33.25,33.25,0,0,0,1.05-8.34c0-.74,0-1.46-.08-2.19Zm80.81-168.47H205.55a15.49,15.49,0,0,0-.26,2.61h13.65A5.19,5.19,0,0,1,219.89,126.15ZM187.07,294.62c3.4.52,5.42,3.53,5.42,8.43v2.1h-2.34v10.53h14.4V305.15h2.34v-6.06a22.91,22.91,0,0,0-.43-4.47Zm98.29-84.23H271.88a7.77,7.77,0,0,1,1.81,4.88H256.84a8.87,8.87,0,0,1,2-4.88h-14.3a23.63,23.63,0,0,0-2.17,10c0,.17,0,.34,0,.51H240a24.2,24.2,0,0,0,2.46,10.53h16a9,9,0,0,1-4.46-7.42v-.25h31v-2.44c0-.15,0-.28,0-.42h2.34A27.9,27.9,0,0,0,285.36,210.39Zm-.21-74.64v.51c0,.14,0,.28,0,.42h-2.34c-.13,6.06-3.17,9.74-7.44,10.53h21.87V136.68h2.34V126.15H280.39C283.23,127.81,285.09,131.15,285.15,135.75Zm23.67,74.72v-.08H294.41v10.53h-2.34v10.53h14.41V226.9a26.7,26.7,0,0,1,.58-6h2.34c1.48-6.5,6.19-9.21,17.36-8v-2.52H308.84A.31.31,0,0,1,308.82,210.47Zm23.83-73.79h-2.34l-1.84,5.56-2.11-5.56h2.34l-4-10.53h-15.4l4.61,10.53h-2.34l4.61,10.53h24.58l3.94-10.53h2.34L351,126.15H336.15Zm-76,157.94H243.15a7.89,7.89,0,0,1,1.82,4.89H228.12a8.86,8.86,0,0,1,2-4.89H215.79a23.86,23.86,0,0,0-2.16,10c0,.17,0,.33,0,.5h-2.34a24.13,24.13,0,0,0,2.46,10.53h16a9,9,0,0,1-4.45-7.41V308h31v-2.45c0-.14,0-.27,0-.42h2.34A27.78,27.78,0,0,0,256.63,294.62Zm-93.38,10.53h-2.34v10.53h14.41V305.15h2.34v-.5c0-6.36,2.93-9.51,7.07-10H163.25ZM320.74,115.62l-.38-1H304.27l.44,1ZM163.25,284.09h14.41v-1H163.25ZM271.84,113.51a19.51,19.51,0,0,0-9.07,2.11h17.59A18.22,18.22,0,0,0,271.84,113.51ZM246.55,284.09a24.35,24.35,0,0,0-10.17-2.1,24,24,0,0,0-9.94,2.1Zm-149.87,0h18a13.71,13.71,0,0,1,20.54,0h18a28.92,28.92,0,0,0-7.54-10.52H143.3a32.31,32.31,0,0,0-41.42,0h2.34A28.92,28.92,0,0,0,96.68,284.09ZM225.42,113.51a27.66,27.66,0,0,0-11.11,2.11H237A28.45,28.45,0,0,0,225.42,113.51Zm29.75,86.35h20.1a25,25,0,0,0-20.1,0Zm30-84.24h14.41V105.09h-2.34V98.77H282.81v6.32h2.34Zm9.26,84.24h14.41v-1H294.41Zm-51.8-1H227.28l-.34,1h15.29Zm-145.48,1h16.26V189.33h-2.34V183H94.79v6.33h2.34Zm0-84.24h16.26v-5.06h12.89c3.82,0,6.71,2,7.46,5.06h16a17.22,17.22,0,0,0-4.64-10.53h-2.34c-3.7-3.94-9.33-6.32-16-6.32H94.79v6.32h2.34Zm229.63,84.24v-1.94a22.14,22.14,0,0,0-9.89,1.94ZM340,114.6l-.34,1h15.29l.38-1ZM192,199.86h16l-.38-1H191.56Zm-15.43-86.35a24,24,0,0,0-9.93,2.11h20.1A24.16,24.16,0,0,0,176.57,113.51Zm3.6,86.35a28.25,28.25,0,0,0-11.61-2.11,27.66,27.66,0,0,0-11.11,2.11ZM191.22,282a15,15,0,0,0-8.05,2.1h16.35A16.12,16.12,0,0,0,191.22,282Zm71.57-124.25a20.48,20.48,0,0,0,6.71,1.09,17.56,17.56,0,0,0,6-1.09Zm-88.23,1.09a28.89,28.89,0,0,0,8.1-1.09H166.84A27.27,27.27,0,0,0,174.56,158.83Zm88.54,84.24a29.19,29.19,0,0,0,8.09-1.09H255.37A27.29,27.29,0,0,0,263.1,243.07Zm58.63-83.23a10.66,10.66,0,0,1-7.5,3.12c-2.36,0-5.14-.5-10.53-3.28v8.59h-2.34v5.22A25.09,25.09,0,0,0,312,175.77c7.14,0,12.87-2.57,17-7.5h2.34a28.45,28.45,0,0,0,4.9-8.85l.63-1.68H320.8ZM152.36,242a16.2,16.2,0,0,0,5.95,1.09,20.66,20.66,0,0,0,6.9-1.09Zm-29.77,85.33a33.92,33.92,0,0,0,8.62-1.1H114A33.92,33.92,0,0,0,122.59,327.31Zm99.48-169.57H209.22a16.18,16.18,0,0,0,5.94,1.09A20.67,20.67,0,0,0,222.07,157.74Zm12.3,169.57a28.89,28.89,0,0,0,8.1-1.1H226.64A27,27,0,0,0,234.37,327.31Zm-18.1-74.8h2.34a28.45,28.45,0,0,0,4.9-8.85l.63-1.68h-16l.92,2.1a10.66,10.66,0,0,1-7.5,3.12c-2.36,0-5.14-.51-10.53-3.29v8.6h-2.34v5.22A25.1,25.1,0,0,0,199.26,260C206.41,260,212.13,257.44,216.27,252.51Z"/><path class="cls-3" d="M99.47,157.74h16.26V147.21h-2.34V136.68h2.34v-.59h10.11l.25.59h-2.34l4.46,10.53h2.34L135,157.74h18.87l-5.68-10.53h-2.34l-5.68-10.53h2.34l-1.36-2.53a18.59,18.59,0,0,0,8.73-8h2.34a18.52,18.52,0,0,0,2.22-8.93c0-.55,0-1.07-.08-1.6H152a17.22,17.22,0,0,0-4.64-10.53h-2.34c-3.7-3.94-9.33-6.32-16-6.32H97.13v6.32h2.34v10.53h2.34v10.53H99.47v10.53H97.13v10.53h2.34Zm16.26-47.18h12.89c3.82,0,6.71,2,7.46,5.06h2.34a6.43,6.43,0,0,1,.2,1.6c0,4.21-3.2,7.33-7.66,7.33H118.07v-8.93h-2.34ZM99.47,242h44V231.45h-2.34v-2.53H113.39v-8h2.34V210.39h2.34V199.86h-2.34V189.33h-2.34V183H97.13v6.33h2.34v10.53h2.34v10.53H99.47v10.53H97.13v10.53h2.34Zm70.42,0A13.49,13.49,0,0,0,177,236.5h.34V242h13.9V231.45h-2.34V220.92h2.34v-6.66a20.7,20.7,0,0,0-.35-3.87h2.34a13.83,13.83,0,0,0-8.35-10.53h-2.34a28.25,28.25,0,0,0-11.61-2.11,27.66,27.66,0,0,0-11.11,2.11h2.34c-4.66,2-7.89,5.6-8.76,10.53H151a15.49,15.49,0,0,0-.26,2.61h13.65a5.19,5.19,0,0,1,1-2.61h2.34a6.35,6.35,0,0,1,5.45-2.45c2.55,0,4.42.87,5.48,2.45H176.3a6.48,6.48,0,0,1,1,3.7v1.35h-3.37c-10.79,0-17.54,2-21.29,5.48h-2.34a11.89,11.89,0,0,0-3.82,9.18c0,.45,0,.9.07,1.35h2.34A12.53,12.53,0,0,0,157,242H154.7a16.2,16.2,0,0,0,6,1.09,20.66,20.66,0,0,0,6.9-1.09Zm-8.06-10.53a3.86,3.86,0,0,1-.93-2.53c0-3.2,2.44-5.56,10.78-5.56H175v2.44a7.08,7.08,0,0,1-3,5.65h2.34a9.86,9.86,0,0,1-5.85,1.76,5.57,5.57,0,0,1-4.29-1.76Zm92.58-84.24h2.34a17.82,17.82,0,0,0,10.72,10.53h-2.34a20.48,20.48,0,0,0,6.71,1.09,17.56,17.56,0,0,0,6-1.09h2.34a12.76,12.76,0,0,0,7.2-6h.08v6H301.9V147.21h-2.34V136.68h2.34V126.15h2.34V115.62H301.9V105.09h-2.34V98.77H285.15v6.32h2.34v10.53h2.34v4.54h-.17a10.51,10.51,0,0,0-4.62-4.54H282.7a18.22,18.22,0,0,0-8.52-2.11,19.51,19.51,0,0,0-9.07,2.11h2.34a18.47,18.47,0,0,0-8.8,10.53h-2.34a29.05,29.05,0,0,0-1.59,9.77c0,.26,0,.5,0,.76H252.4A29.29,29.29,0,0,0,254.41,147.21Zm14.49-10.53c0-.25,0-.5,0-.76,0-4.72,1.93-8.1,4.82-9.77H276a9,9,0,0,1,4.53-1.18,8.87,8.87,0,0,1,4.51,1.18h-2.34c2.84,1.66,4.7,5,4.76,9.6v.51c0,.14,0,.28,0,.42h-2.34c-.13,6.06-3.17,9.74-7.44,10.53H280a9.67,9.67,0,0,1-1.81.17,9.87,9.87,0,0,1-1.74-.17h-2.34c-4.19-.79-7.34-4.5-7.58-10.53Zm-115.06,0a24.17,24.17,0,0,0,2.46,10.53h2.34a20.63,20.63,0,0,0,12.88,10.53h-2.34a27.27,27.27,0,0,0,7.72,1.09,28.89,28.89,0,0,0,8.1-1.09h2.34a18.69,18.69,0,0,0,12.34-10.53h-2.34a22.74,22.74,0,0,0,1.38-4.13H185a7.36,7.36,0,0,1-3.11,4.13h2.34a9.47,9.47,0,0,1-5,1.18,9.25,9.25,0,0,1-4.56-1.18h-2.34a9,9,0,0,1-4.45-7.42v-.25h31V137.1c0-.15,0-.28,0-.42h2.34a27.74,27.74,0,0,0-2.06-10.53h2.34a19.73,19.73,0,0,0-10.08-10.53h-2.34a25,25,0,0,0-20.1,0h2.34a21.33,21.33,0,0,0-10.65,10.53h-2.34a23.63,23.63,0,0,0-2.17,10c0,.17,0,.34,0,.51Zm18.79-10.53H175a8.24,8.24,0,0,1,6.45-3,8.44,8.44,0,0,1,6.6,3h-2.34A7.78,7.78,0,0,1,187.5,131H170.65A8.87,8.87,0,0,1,172.63,126.15Zm33.13,21.06a12.51,12.51,0,0,0,8.14,10.53h-2.34a16.18,16.18,0,0,0,5.94,1.09,20.67,20.67,0,0,0,6.91-1.09h2.34a13.54,13.54,0,0,0,7.08-5.48h.34v5.48h13.9V147.21h-2.34V136.68h2.34V130a20.7,20.7,0,0,0-.35-3.87h2.34a13.83,13.83,0,0,0-8.35-10.53h-2.34a28.45,28.45,0,0,0-11.61-2.11,27.66,27.66,0,0,0-11.11,2.11H219c-4.67,2.06-7.89,5.61-8.76,10.53h-2.34a15.49,15.49,0,0,0-.26,2.61h13.65a5.19,5.19,0,0,1,.95-2.61h2.34A6.35,6.35,0,0,1,230,123.7c2.55,0,4.42.87,5.48,2.45h-2.34a6.58,6.58,0,0,1,1,3.7v1.35H230.8c-10.79,0-17.54,2.05-21.29,5.48h-2.34a11.89,11.89,0,0,0-3.82,9.18c0,.46,0,.91.07,1.35Zm22.78-8.09h3.29v2.44a7.08,7.08,0,0,1-3,5.65h2.34a9.79,9.79,0,0,1-5.85,1.77,5.54,5.54,0,0,1-4.29-1.77h-2.34a3.83,3.83,0,0,1-.93-2.53C217.76,141.48,220.2,139.12,228.54,139.12Zm8.16,81.8,3.93-10.53H243l3.94-10.53h-2.34l.38-1H229.62l-.34,1h2.34l-3.5,10.53h-2.34l-3.5,10.53h-2.34l-1.84,5.55-2.1-5.55h2.34l-4-10.53h2.34l-4-10.53h-2.34l-.38-1H193.9l.44,1h2.34l4.61,10.53H199l4.61,10.53h-2.34l4.61,10.53h2.34L212.78,242h-2.34l.92,2.1a10.66,10.66,0,0,1-7.5,3.12c-2.36,0-5.14-.51-10.53-3.29v8.6H191v5.22A25.1,25.1,0,0,0,201.6,260c7.15,0,12.87-2.56,17-7.49H221a28.45,28.45,0,0,0,4.9-8.85l.63-1.68h2.34l3.94-10.53h-2.34l3.94-10.53Zm120.58-105.3.38-1H342.33l-.34,1h2.34l-3.5,10.53h-2.34L335,136.68h-2.34l-1.85,5.56-2.1-5.56H331l-4-10.53h2.34l-4-10.53h-2.34l-.38-1H306.61l.44,1h2.34L314,126.15h-2.34l4.61,10.53h-2.34l4.61,10.53h2.34l4.6,10.53h-2.34l.93,2.1a10.66,10.66,0,0,1-7.5,3.12c-2.36,0-5.14-.5-10.53-3.28v8.59H303.7v5.22a25.09,25.09,0,0,0,10.61,2.28c7.14,0,12.87-2.57,17-7.5h2.34a28.45,28.45,0,0,0,4.9-8.85l.63-1.68h2.34l3.93-10.53h-2.34l3.94-10.53h2.34l3.94-10.53h2.34l3.94-10.53ZM280,199.86h-2.34a25,25,0,0,0-20.1,0h2.34a21.29,21.29,0,0,0-10.65,10.53h-2.34a23.63,23.63,0,0,0-2.17,10c0,.17,0,.34,0,.51h-2.34a24.2,24.2,0,0,0,2.46,10.53h2.34A20.59,20.59,0,0,0,260.05,242h-2.34a27.29,27.29,0,0,0,7.73,1.09,29.19,29.19,0,0,0,8.09-1.09h2.34a18.67,18.67,0,0,0,12.34-10.53h-2.34a22.75,22.75,0,0,0,1.39-4.13H273.53a7.45,7.45,0,0,1-3.12,4.13h2.34a9.53,9.53,0,0,1-5,1.17,9.21,9.21,0,0,1-4.56-1.17h-2.34a9,9,0,0,1-4.46-7.42v-.25h31v-2.44c0-.15,0-.28,0-.42h2.34a27.9,27.9,0,0,0-2.05-10.53H290A19.74,19.74,0,0,0,280,199.86ZM276,215.27H259.18a8.87,8.87,0,0,1,2-4.88h2.34a8.27,8.27,0,0,1,6.45-2.95,8.44,8.44,0,0,1,6.61,2.95h-2.34A7.77,7.77,0,0,1,276,215.27Zm-24.8,68.82h-2.34a24.36,24.36,0,0,0-10.18-2.1,24,24,0,0,0-9.93,2.1h2.34a21.45,21.45,0,0,0-10.65,10.53h-2.34a23.86,23.86,0,0,0-2.16,10c0,.17,0,.33,0,.5h-2.34a24.13,24.13,0,0,0,2.46,10.53h2.34a20.64,20.64,0,0,0,12.87,10.53H229a27,27,0,0,0,7.73,1.1,28.89,28.89,0,0,0,8.1-1.1h2.33a18.68,18.68,0,0,0,12.35-10.53h-2.34a23.27,23.27,0,0,0,1.38-4.13H244.8a7.32,7.32,0,0,1-3.11,4.13H244a9.44,9.44,0,0,1-5,1.18,9.25,9.25,0,0,1-4.56-1.18h-2.34a9,9,0,0,1-4.45-7.41V308h31v-2.45c0-.14,0-.27,0-.42H261a27.78,27.78,0,0,0-2-10.53h2.34A19.76,19.76,0,0,0,251.23,284.09Zm-3.92,15.42H230.46a8.79,8.79,0,0,1,2-4.89h2.34a8.23,8.23,0,0,1,6.44-2.95,8.44,8.44,0,0,1,6.61,2.95h-2.34A7.89,7.89,0,0,1,247.31,299.51Zm-89.45-15.42h-2.34A28.92,28.92,0,0,0,148,273.57h-2.34a32.31,32.31,0,0,0-41.42,0h2.34A28.92,28.92,0,0,0,99,284.09h2.34a32.25,32.25,0,0,0-2.42,10.53H96.6c0,.73-.08,1.45-.08,2.19a33.25,33.25,0,0,0,1,8.34H95.23a29.47,29.47,0,0,0,5.09,10.53h2.34a29.18,29.18,0,0,0,16,10.53h-2.34a34.32,34.32,0,0,0,17.24,0h2.34a29.18,29.18,0,0,0,16-10.53h-2.34a29.47,29.47,0,0,0,5.09-10.53H157a33.25,33.25,0,0,0,1.05-8.34c0-.74,0-1.46-.08-2.19h2.34A32,32,0,0,0,157.86,284.09Zm-16.35,12.64a22.35,22.35,0,0,1-1.52,8.42h-2.34a13.66,13.66,0,0,1-25.44,0h2.34a22.35,22.35,0,0,1-1.52-8.42c0-.72,0-1.42.09-2.11h2.34a18.39,18.39,0,0,1,3.88-10.53H117a13.71,13.71,0,0,1,20.54,0h2.34a18.39,18.39,0,0,1,3.88,10.53h-2.34C141.47,295.31,141.51,296,141.51,296.73Zm62.69-12.64h-2.34a16.12,16.12,0,0,0-8.3-2.1,15,15,0,0,0-8.05,2.1h2.34a14.62,14.62,0,0,0-5.51,6.66v-6.66H180v-1H165.59v1h2.34v10.53h-2.34v10.53h-2.34v10.53h2.34v10.53H180V315.68h-2.34V305.15H180v-.5c0-6.36,2.93-9.51,7.07-10h2.34c3.4.52,5.42,3.53,5.42,8.43v2.1h-2.34v10.53h2.34v10.53h14.4V315.68h-2.34V305.15h2.34v-6.06a22.91,22.91,0,0,0-.43-4.47h2.34C210.23,290,207.85,286.25,204.2,284.09Zm-14.79,10.53a10.56,10.56,0,0,1,1.27-.08,7.48,7.48,0,0,1,1.07.08Zm139.69-96.7a22.14,22.14,0,0,0-9.89,1.94h2.34c-3.88,1.9-6.53,5.29-8,10.53h0V199.86h-2.34v-1H296.75v1h2.34v10.53h-2.34v10.53h-2.34v10.53h2.34V242h14.41V231.45h-2.34V226.9a26.7,26.7,0,0,1,.58-6h2.34c1.48-6.5,6.19-9.21,17.36-8v-2.52h2.34V199.86H329.1Zm-17.94,12.55v-.08h0A.31.31,0,0,1,311.16,210.47Z"/><path class="cls-1" d="M0,168.27H84.24V157.74H0Z"/><path class="cls-1" d="M0,333.23H84.24v-7H0Z"/></g></svg>