<svg viewBox="0 0 432 432" xmlns="http://www.w3.org/2000/svg"><g fill="#fff"><path d="m0 242.06h84.52v3.52h-84.52z"/><path d="m84.52 146.98h10.56v10.56h-10.56z"/><path d="m84.52 231.5h10.56v10.56h-10.56z"/><path d="m84.52 316.02h10.56v10.56h-10.56z"/><path d="m115.29 147h-16.29v10.56h16.31zm98.5 10.56h12.89a13.6 13.6 0 0 0 7.11-5.49h.34v5.49h13.94v-10.56h-16.95a9.88 9.88 0 0 1 -5.87 1.77 5.56 5.56 0 0 1 -4.25-1.77h-15.38a12.54 12.54 0 0 0 8.17 10.54zm53.75 0h12.78a12.7 12.7 0 0 0 7.22-6h.09v6h14.45v-10.56h-21.94a9.75 9.75 0 0 1 -1.81.17 9.19 9.19 0 0 1 -1.75-.17h-19.8a17.9 17.9 0 0 0 10.76 10.54zm.31 75.14a9.32 9.32 0 0 1 -4.58-1.18h-16.09a20.66 20.66 0 0 0 12.92 10.56h15.9a18.7 18.7 0 0 0 12.38-10.56h-15.54a9.51 9.51 0 0 1 -4.99 1.16zm-124.75-1.2h-44.1v10.56h44.1zm95.9 85.7a9.32 9.32 0 0 1 -4.58-1.18h-16.06a20.67 20.67 0 0 0 12.91 10.56h15.88a18.7 18.7 0 0 0 12.38-10.58h-15.53a9.51 9.51 0 0 1 -5 1.2zm-120.8 9.38h17.29a29.33 29.33 0 0 0 16-10.56h-49.31a29.26 29.26 0 0 0 16.05 10.56zm178.69-84.52h14.46v-10.56h-14.43zm-131.56 84.52h14.45v-10.58h-14.45zm29.33 0h14.45v-10.58h-14.45zm126.47-179.58 4.62 10.56h16.09l4-10.56zm-149.86 10.54h15.87a18.7 18.7 0 0 0 12.38-10.54h-15.52a9.51 9.51 0 0 1 -5 1.18 9.32 9.32 0 0 1 -4.58-1.18h-16.07a20.66 20.66 0 0 0 12.92 10.54zm-3.07 75.73a5.56 5.56 0 0 1 -4.3-1.77h-15.33a12.54 12.54 0 0 0 8.17 10.56h12.9a13.61 13.61 0 0 0 7.1-5.49h.34v5.49h13.92v-10.56h-17a9.88 9.88 0 0 1 -5.8 1.77zm64.51-1.77h-24.71l4.62 10.56h16.1zm-79.13-74-5.69-10.5h-17.72l4.48 10.56z"/><path d="m230.36 231.5 4-10.57h-14.5l-1.86 5.58-2.11-5.58h-14.82l4.62 10.57zm-84.2-1.36a12.26 12.26 0 0 0 .07 1.36h15.32a3.88 3.88 0 0 1 -.94-2.54c0-3.21 2.45-5.58 10.82-5.58h3.3v2.45a7.12 7.12 0 0 1 -3 5.67h17v-10.57h-38.73a11.94 11.94 0 0 0 -3.84 9.21zm35.5-83.14h15.52a23.11 23.11 0 0 0 1.38-4.14h-13.77a7.41 7.41 0 0 1 -3.13 4.14zm36.94 0a3.88 3.88 0 0 1 -.94-2.54c0-3.21 2.45-5.58 10.82-5.58h3.3v2.45a7.1 7.1 0 0 1 -3 5.67h17v-10.59h-38.78a11.94 11.94 0 0 0 -3.83 9.21 12.26 12.26 0 0 0 .07 1.36zm23.76 74a24.35 24.35 0 0 0 2.47 10.57h16.1a9 9 0 0 1 -4.47-7.44v-.25h31.1v-2.46c0-.14 0-.27 0-.42zm-70.26-74a9 9 0 0 1 -4.47-7.44v-.25h31.1v-2.46c0-.14 0-.27 0-.42h-45.2a24.32 24.32 0 0 0 2.47 10.57zm41.44 158.47a24.35 24.35 0 0 0 2.46 10.53h16.1a9 9 0 0 1 -4.47-7.44v-.26h31.1v-2.45c0-.14 0-.27 0-.42zm81-73.95h14.46v-4.57a27 27 0 0 1 .58-6h-15zm-52.87 84.48h15.52a23 23 0 0 0 1.38-4.15h-13.77a7.43 7.43 0 0 1 -3.13 4.15zm-49.36 0h14.45v-10.55h-14.45zm-67.78-1.86a13.24 13.24 0 0 1 -12.76-8.71h-17a29.59 29.59 0 0 0 5.06 10.57h49.39a29.59 29.59 0 0 0 5.1-10.57h-17a13.23 13.23 0 0 1 -12.79 8.73zm38.47 1.86h14.45v-10.55h-14.45zm170-179.61-1.91 5.61-2.09-5.59h-14.85l4.63 10.59h24.67l3.95-10.57zm-192.25 92.61h-27.81v-8h-16.31v10.5h44.12zm4.79-82-5.7-10.57h-16.5l4.48 10.57zm-32.6-10.57h-16.31v10.57h16.31zm161.29 10.57c-4.2-.8-7.36-4.51-7.6-10.57h-14.21a29.69 29.69 0 0 0 2 10.57zm25.5-10.57h-14.47c-.13 6.09-3.18 9.77-7.46 10.57h21.93zm-29.24 95.07h15.51a23 23 0 0 0 1.38-4.15h-13.76a7.43 7.43 0 0 1 -3.13 4.15z"/><path d="m236.66 220.93 4-10.56h-14.9l-3.52 10.56zm-63-5.49c-10.82 0-17.6 2.05-21.36 5.49h38.7v-6.68a20.81 20.81 0 0 0 -.35-3.88h-14.59a6.54 6.54 0 0 1 1 3.71v1.36zm29.72 5.49h14.82l-4-10.56h-15.41zm-38.28-10.56h-14.39a15.72 15.72 0 0 0 -.26 2.62h13.69a5.33 5.33 0 0 1 .96-2.62zm-52.43 84.52h-16.57c0 .72-.08 1.45-.08 2.19a33 33 0 0 0 1.06 8.37h17a22.31 22.31 0 0 1 -1.52-8.45c.03-.72.06-1.43.11-2.11zm88.39-158.48a27.71 27.71 0 0 0 -2.06-10.56h-13.52a7.78 7.78 0 0 1 1.82 4.9h-16.9a8.83 8.83 0 0 1 2-4.9h-14.4a23.77 23.77 0 0 0 -2.17 10.05v.51zm110.32 74v-.08h-14.46v10.56h15c1.49-6.51 6.21-9.23 17.42-8v-2.53h-18a.24.24 0 0 0 .04.09zm-65.89 84.44a7.78 7.78 0 0 1 1.82 4.9h-16.9a8.83 8.83 0 0 1 2-4.9h-14.41a23.77 23.77 0 0 0 -2.17 10.05v.51h45.18a27.71 27.71 0 0 0 -2.01-10.52zm-104.67-161a18.72 18.72 0 0 0 8.76-8h-50.58v10.56h16.31v-.59h10.15l.25.59h16.5zm133.49 76.49a7.78 7.78 0 0 1 1.82 4.9h-16.9a8.83 8.83 0 0 1 2-4.9h-14.37a23.77 23.77 0 0 0 -2.17 10v.51h45.18a27.71 27.71 0 0 0 -2.06-10.56zm-43.56-79.45c-10.83 0-17.6 2.05-21.36 5.49h38.68v-6.68a20.81 20.81 0 0 0 -.35-3.88h-14.61a6.54 6.54 0 0 1 1 3.71v1.36zm-89.68 164c.05.68.09 1.39.09 2.11a22.31 22.31 0 0 1 -1.53 8.45h17a33 33 0 0 0 1.06-8.37c0-.74 0-1.47-.08-2.19zm48.15 0c3.41.51 5.44 3.53 5.44 8.45v2.11h14.45v-6.09a23.7 23.7 0 0 0 -.43-4.47zm-23.89 10.56h14.45v-.51c0-6.38 2.94-9.53 7.09-10.05h-21.54zm173.47-179.6-3.51 10.56h14.46l3.95-10.56zm-239.8 95.08h16.31v-10.56h-16.31zm188.65-85.45v.52.42h14.47v-10.57h-19.27c2.85 1.66 4.72 5.02 4.78 9.63zm24.25-9.63 4.62 10.56h14.83l-4-10.56zm-42.9 10.56c0-.25 0-.5 0-.76 0-4.74 1.93-8.13 4.83-9.8h-17.49a29.23 29.23 0 0 0 -1.59 9.8v.76zm-46.82-10.56h-14.42a15.72 15.72 0 0 0 -.26 2.62h13.69a5.33 5.33 0 0 1 .96-2.62z"/><path d="m196.52 199.8 4.62 10.57h15.46l-4-10.57zm-23.6 8.11c2.55 0 4.43.88 5.49 2.46h14.59a13.87 13.87 0 0 0 -8.38-10.57h-22.77c-4.68 2.07-7.91 5.63-8.79 10.57h14.39a6.38 6.38 0 0 1 5.47-2.46zm55.14 2.46h14.94l4-10.57h-15.43zm52-10.57h-20.16a21.45 21.45 0 0 0 -10.69 10.57h14.35a8.27 8.27 0 0 1 6.47-3 8.48 8.48 0 0 1 6.63 3h13.52a19.82 19.82 0 0 0 -10.11-10.57zm-125.9-82.91c0-.55 0-1.08-.09-1.61h-16a6.51 6.51 0 0 1 .2 1.61c0 4.22-3.21 7.35-7.69 7.35h-12.94v-9h-16.31v10.57h50.59a18.51 18.51 0 0 0 2.24-8.92zm49.9 167.43h-16.4a14.6 14.6 0 0 0 -5.53 6.68v-6.68h-14.46v10.57h21.55a10.71 10.71 0 0 1 1.28-.09 7.47 7.47 0 0 1 1.07.09h19.43c-.89-4.69-3.28-8.4-6.94-10.57zm95.21-73.95h14.45v-10.57h-14.45zm-18.59-85.71a8.84 8.84 0 0 1 4.52 1.19h19.23v-10.57h-14.43v4.56h-.17a10.6 10.6 0 0 0 -4.64-4.56h-17.67a18.57 18.57 0 0 0 -8.83 10.57h17.44a9 9 0 0 1 4.55-1.19zm-29.43 159.66h-20.18a21.47 21.47 0 0 0 -10.68 10.57h14.35a8.27 8.27 0 0 1 6.47-3 8.48 8.48 0 0 1 6.63 3h13.52a19.82 19.82 0 0 0 -10.11-10.57zm-111.73 0a18.4 18.4 0 0 1 3.9 10.57h16.58a32.69 32.69 0 0 0 -2.43-10.57zm174.23-73.95h18v-10.57h-9.95c-3.89 1.92-6.55 5.32-8.05 10.57zm30.91-95.09-3.51 10.57h14.9l3.95-10.57zm-246.22 179.61h16.56a18.47 18.47 0 0 1 3.9-10.57h-18a32.44 32.44 0 0 0 -2.46 10.57zm131.56-171.5c2.55 0 4.43.88 5.49 2.46h14.61a13.87 13.87 0 0 0 -8.38-10.57h-22.82c-4.68 2.07-7.91 5.63-8.79 10.57h14.38a6.42 6.42 0 0 1 5.51-2.46zm99.71 2.46-4-10.57h-16.11l4.63 10.57zm-212 74h-16.38v10.57h16.31zm63.56-76.91a8.48 8.48 0 0 1 6.63 3h13.52a19.82 19.82 0 0 0 -10.11-10.57h-20.24a21.45 21.45 0 0 0 -10.69 10.57h14.35a8.27 8.27 0 0 1 6.47-3.05z"/><path d="m228.73 284.32h20.17a24.35 24.35 0 0 0 -10.21-2.11 24.1 24.1 0 0 0 -9.96 2.11zm-63.4 0h14.45v-1h-14.45zm-17.67-10.56h-41.57a29 29 0 0 0 -7.56 10.56h18a13.74 13.74 0 0 1 20.61 0h18a29.12 29.12 0 0 0 -7.48-10.56zm149.26-74h14.46v-1h-14.46zm-103.19-1 .44 1h16.08l-.38-1zm148.92-84.51-.34 1h15.34l.38-1zm-85.1 85.53h20.17a24.35 24.35 0 0 0 -10.21-2.11 24.1 24.1 0 0 0 -9.96 2.13zm71.83 0v-1.94a22.29 22.29 0 0 0 -9.93 1.94zm-144.07 84.54h16.4a16.2 16.2 0 0 0 -8.32-2.11 15 15 0 0 0 -8.08 2.11zm138-169-.39-1h-16.11l.45 1zm-208-5.07h12.94c3.83 0 6.73 2.05 7.49 5.07h16a17.32 17.32 0 0 0 -4.66-10.56h-48.08v10.56h16.31zm112.41 3a27.82 27.82 0 0 0 -11.15 2.11h22.79a28.56 28.56 0 0 0 -11.66-2.19zm37.47 2.11h17.66a18.35 18.35 0 0 0 -8.56-2.11 19.64 19.64 0 0 0 -9.12 2.03zm36.91-10.56h-14.47v10.56h14.45zm-72.87 95h15.34l.38-1h-15.39zm-69.73 0h22.79a28.56 28.56 0 0 0 -11.64-2.11 27.82 27.82 0 0 0 -11.15 2.11zm19.18-86.63a24.1 24.1 0 0 0 -10 2.11h20.17a24.35 24.35 0 0 0 -10.17-2.11zm-63.39 76.07h-16.29v10.56h16.31z"/><path d="m285.28 98.37v6.35h14.45v-6.35zm-181.54 175.39h41.57a32.45 32.45 0 0 0 -41.57 0zm9.2-90.87h-16.31v6.35h16.31zm15.73-84.52h-32v6.35h48.09c-3.76-3.95-9.4-6.35-16.09-6.35z"/><path d="m224.34 157.54h-12.9a16.14 16.14 0 0 0 6 1.1 20.53 20.53 0 0 0 6.9-1.1zm-47.67 1.1a29 29 0 0 0 8.12-1.1h-15.87a27.13 27.13 0 0 0 7.75 1.1zm95.25 0a17.41 17.41 0 0 0 6.05-1.1h-12.78a20.34 20.34 0 0 0 6.73 1.1zm51.48-1.1.93 2.12a10.71 10.71 0 0 1 -7.53 3.12c-2.36 0-5.15-.5-10.56-3.29v8.62h27.76a28.43 28.43 0 0 0 4.91-8.88l.64-1.69zm-57.9 85.62a29 29 0 0 0 8.12-1.1h-15.87a27.13 27.13 0 0 0 7.75 1.1zm-105.14 0a20.53 20.53 0 0 0 6.93-1.1h-12.9a16.14 16.14 0 0 0 5.97 1.1zm-35.83 84.52a33.69 33.69 0 0 0 8.64-1.1h-17.29a33.71 33.71 0 0 0 8.65 1.1zm112.15 0a29 29 0 0 0 8.12-1.1h-15.87a27.13 27.13 0 0 0 7.75 1.1zm-25.44-83.5a10.69 10.69 0 0 1 -7.52 3.12c-2.37 0-5.16-.5-10.57-3.29v8.62h27.72a28.43 28.43 0 0 0 4.91-8.88l.63-1.69h-16.09z"/><path d="m190.8 257.87a25.15 25.15 0 0 0 10.66 2.28c7.16 0 12.9-2.57 17.06-7.52h-27.72zm113.09-89.76v5.24a25.14 25.14 0 0 0 10.65 2.28c7.17 0 12.91-2.57 17.06-7.52z"/><path d="m0 157.54v2.52h84.52v2h-84.52v6.05h84.52v-10.57z"/><path d="m0 326.58v3.65h84.52v2h-84.52v1.4h84.52v-7.05z"/></g></svg>