<svg viewBox="0 0 432 432" xmlns="http://www.w3.org/2000/svg"><g fill="#fe09ff"><path d="m0 241.98h84.24v3.51h-84.24z"/><path d="m84.24 147.21h10.53v10.53h-10.53z"/><path d="m84.24 231.45h10.53v10.53h-10.53z"/><path d="m84.24 315.68h10.53v10.53h-10.53z"/></g><path d="m84.24 147.21h2.34v10.53h-2.34z" fill="#20f7e9"/><path d="m84.24 231.45h2.34v10.53h-2.34z" fill="#20f7e9"/><path d="m84.24 315.68h2.34v10.53h-2.34z" fill="#20f7e9"/><path d="m244 315.68h15.46a23.27 23.27 0 0 0 1.38-4.13h-13.7a7.32 7.32 0 0 1 -3.14 4.13zm-128.3-179h2.34v-.59h10.11l.25.59h-2.34l4.46 10.53h17.66l-5.68-10.53h2.34l-1.36-2.53a18.59 18.59 0 0 0 8.73-8h-50.4v10.53h-2.34v10.53h16.26zm68.49 10.53h15.46a22.74 22.74 0 0 0 1.38-4.13h-13.7a7.36 7.36 0 0 1 -3.11 4.13zm-40.77 81.71h-27.69v-8h2.34v-10.53h-16.26v10.53h-2.34v10.53h44zm113.3-81.71h19.73c-4.19-.79-7.34-4.5-7.58-10.53h2.34c0-.25 0-.5 0-.76 0-4.72 1.93-8.1 4.82-9.77h-17.38a29.05 29.05 0 0 0 -1.59 9.77v.76h-2.34a29.29 29.29 0 0 0 2.03 10.53zm16 84.24h15.46a22.75 22.75 0 0 0 1.39-4.13h-13.71a7.39 7.39 0 0 1 -3.11 4.13zm-51.72-84.24a3.83 3.83 0 0 1 -.93-2.53c0-3.2 2.44-5.56 10.78-5.56h3.29v2.44a7.08 7.08 0 0 1 -3 5.65h16.9v-10.53h2.34v-6.68a20.7 20.7 0 0 0 -.35-3.87h-14.53a6.58 6.58 0 0 1 1 3.7v1.35h-3.37c-10.79 0-17.54 2.05-21.29 5.48h-2.34a11.89 11.89 0 0 0 -3.82 9.18c0 .46 0 .91.07 1.35zm-29.82 73.71h2.34v-6.66a20.7 20.7 0 0 0 -.35-3.87h-14.53a6.48 6.48 0 0 1 1 3.7v1.35h-3.37c-10.79 0-17.54 2-21.29 5.48h-2.34a11.89 11.89 0 0 0 -3.82 9.18c0 .45 0 .9.07 1.35h15.27a3.86 3.86 0 0 1 -.93-2.53c0-3.2 2.44-5.56 10.78-5.56h3.29v2.44a7.08 7.08 0 0 1 -3 5.65h16.9zm-32.57-73.71h16a9 9 0 0 1 -4.45-7.42v-.25h31v-2.44c0-.15 0-.28 0-.42h2.34a27.74 27.74 0 0 0 -2.06-10.53h-13.44a7.78 7.78 0 0 1 1.82 4.88h-16.82a8.87 8.87 0 0 1 2-4.88h-14.3a23.63 23.63 0 0 0 -2.17 10v.51h-2.34a24.17 24.17 0 0 0 2.45 10.55zm-5.5 65.79h13.65a5.19 5.19 0 0 1 1-2.61h-14.39a15.49 15.49 0 0 0 -.26 2.61zm71.51 7.92h-2.34l-1.84 5.55-2.1-5.55h2.34l-4-10.53h-15.4l4.61 10.53h-2.34l4.61 10.53h24.59l3.94-10.53h2.31l4-10.53h-14.88zm-80.86 73.7c.05.69.09 1.39.09 2.11a22.35 22.35 0 0 1 -1.52 8.42h-2.33a13.66 13.66 0 0 1 -25.44 0h2.34a22.35 22.35 0 0 1 -1.52-8.42c0-.72 0-1.42.09-2.11h-16.53c0 .73-.08 1.45-.08 2.19a33.25 33.25 0 0 0 1 8.34h-2.29a29.47 29.47 0 0 0 5.09 10.53h49.22a29.47 29.47 0 0 0 5.12-10.53h2.34a33.25 33.25 0 0 0 1.05-8.34c0-.74 0-1.46-.08-2.19zm80.81-168.47h-14.34a15.49 15.49 0 0 0 -.26 2.61h13.65a5.19 5.19 0 0 1 .95-2.61zm-32.82 168.47c3.4.52 5.42 3.53 5.42 8.43v2.1h-2.34v10.53h14.4v-10.53h2.34v-6.06a22.91 22.91 0 0 0 -.43-4.47zm98.25-84.23h-13.44a7.77 7.77 0 0 1 1.81 4.88h-16.85a8.87 8.87 0 0 1 2-4.88h-14.32a23.63 23.63 0 0 0 -2.17 10v.51h-2.34a24.2 24.2 0 0 0 2.46 10.53h16a9 9 0 0 1 -4.46-7.42v-.25h31v-2.44c0-.15 0-.28 0-.42h2.34a27.9 27.9 0 0 0 -2.03-10.51zm-.21-74.64v.51.42h-2.34c-.13 6.06-3.17 9.74-7.44 10.53h21.89v-10.53h2.34v-10.53h-19.17c2.84 1.66 4.7 5 4.76 9.6zm23.67 74.72v-.08h-14.37v10.53h-2.34v10.53h14.41v-4.55a26.7 26.7 0 0 1 .58-6h2.34c1.48-6.5 6.19-9.21 17.36-8v-2.52h-17.92a.31.31 0 0 1 -.02.09zm23.83-73.79h-2.29l-1.85 5.56-2.1-5.56h2.34l-4-10.53h-15.39l4.61 10.53h-2.34l4.61 10.53h24.58l3.94-10.53h2.34l3.94-10.53h-14.85zm-76 157.94h-13.46a7.89 7.89 0 0 1 1.82 4.89h-16.85a8.79 8.79 0 0 1 2-4.89h-14.33a23.86 23.86 0 0 0 -2.16 10v.5h-2.31a24.13 24.13 0 0 0 2.46 10.53h16a9 9 0 0 1 -4.45-7.41v-.24h31v-2.45c0-.14 0-.27 0-.42h2.34a27.78 27.78 0 0 0 -2.04-10.51zm-93.38 10.53h-2.34v10.53h14.43v-10.53h2.34v-.5c0-6.36 2.93-9.51 7.07-10h-21.48zm157.51-189.53-.38-1h-16.04l.44 1zm-157.49 168.47h14.41v-1h-14.41zm108.59-170.58a19.51 19.51 0 0 0 -9.07 2.11h17.55a18.22 18.22 0 0 0 -8.48-2.11zm-25.29 170.58a24.36 24.36 0 0 0 -10.18-2.1 24 24 0 0 0 -9.93 2.1zm-149.87 0h18a13.71 13.71 0 0 1 20.54 0h18a28.92 28.92 0 0 0 -7.54-10.52h-2.36a32.31 32.31 0 0 0 -41.42 0h2.34a28.92 28.92 0 0 0 -7.56 10.52zm128.74-170.58a27.66 27.66 0 0 0 -11.1 2.11h22.72a28.45 28.45 0 0 0 -11.62-2.11zm29.75 86.35h20.15a25 25 0 0 0 -20.1 0zm30-84.24h14.41v-10.53h-2.36v-6.32h-14.41v6.32h2.34zm9.26 84.24h14.39v-1h-14.41zm-51.8-1h-15.31l-.34 1h15.29zm-145.48 1h16.26v-10.53h-2.34v-6.33h-16.28v6.33h2.34zm0-84.24h16.26v-5.06h12.91c3.82 0 6.71 2 7.46 5.06h16a17.22 17.22 0 0 0 -4.64-10.53h-2.42c-3.7-3.94-9.33-6.32-16-6.32h-31.93v6.32h2.34zm229.63 84.24v-1.94a22.14 22.14 0 0 0 -9.89 1.94zm13.23-85.26-.34 1h15.29l.38-1zm-148 85.26h16l-.38-1h-16.07zm-15.43-86.35a23.93 23.93 0 0 0 -9.93 2.11h20.1a24.16 24.16 0 0 0 -10.18-2.11zm3.6 86.35a28.25 28.25 0 0 0 -11.61-2.11 27.66 27.66 0 0 0 -11.11 2.11zm11.04 82.14a15 15 0 0 0 -8.05 2.1h16.35a16.12 16.12 0 0 0 -8.3-2.1zm71.57-124.25a20.48 20.48 0 0 0 6.71 1.09 17.56 17.56 0 0 0 6-1.09zm-88.23 1.09a28.89 28.89 0 0 0 8.1-1.09h-15.82a27.27 27.27 0 0 0 7.72 1.08zm88.54 84.24a29.19 29.19 0 0 0 8.09-1.09h-15.82a27.29 27.29 0 0 0 7.73 1.08zm58.63-83.23a10.66 10.66 0 0 1 -7.5 3.12c-2.36 0-5.14-.5-10.53-3.28v8.59h-2.38v5.22a25.09 25.09 0 0 0 10.61 2.28c7.14 0 12.87-2.57 17-7.5h2.39a28.45 28.45 0 0 0 4.9-8.85l.63-1.68h-16zm-169.41 82.15a16.2 16.2 0 0 0 6 1.09 20.66 20.66 0 0 0 6.9-1.09zm-29.77 85.33a33.92 33.92 0 0 0 8.62-1.1h-17.2a33.92 33.92 0 0 0 8.62 1.08zm99.48-169.57h-12.81a16.18 16.18 0 0 0 5.94 1.09 20.67 20.67 0 0 0 6.91-1.11zm12.3 169.57a28.89 28.89 0 0 0 8.1-1.1h-15.79a27 27 0 0 0 7.73 1.08zm-18.01-74.82h2.34a28.45 28.45 0 0 0 4.9-8.85l.63-1.68h-16l.92 2.1a10.66 10.66 0 0 1 -7.5 3.12c-2.36 0-5.14-.51-10.53-3.29v8.6h-2.34v5.22a25.1 25.1 0 0 0 10.52 2.27c7.15 0 12.87-2.56 17.06-7.49z" fill="#fe09ff"/><path d="m239.35 315.68h15.46a23.27 23.27 0 0 0 1.38-4.13h-13.73a7.32 7.32 0 0 1 -3.11 4.13zm-128.3-179h2.34v-.59h10.11l.25.59h-2.34l4.46 10.53h17.66l-5.68-10.53h2.34l-1.36-2.53a18.59 18.59 0 0 0 8.73-8h-50.43v10.53h-2.34v10.53h16.26zm68.49 10.53h15.46a22.74 22.74 0 0 0 1.38-4.13h-13.73a7.36 7.36 0 0 1 -3.11 4.13zm-40.77 81.71h-27.72v-8h2.34v-10.53h-16.26v10.53h-2.34v10.53h44zm113.3-81.71h19.73c-4.19-.79-7.34-4.5-7.58-10.53h2.34c0-.25 0-.5 0-.76 0-4.72 1.93-8.1 4.82-9.77h-17.38a29.05 29.05 0 0 0 -1.59 9.77v.76h-2.34a29.29 29.29 0 0 0 2 10.53zm16 84.24h15.46a22.75 22.75 0 0 0 1.39-4.13h-13.73a7.45 7.45 0 0 1 -3.12 4.13zm-51.72-84.24a3.83 3.83 0 0 1 -.93-2.53c0-3.2 2.44-5.56 10.78-5.56h3.29v2.44a7.08 7.08 0 0 1 -3 5.65h16.9v-10.53h2.34v-6.68a20.7 20.7 0 0 0 -.35-3.87h-14.56a6.58 6.58 0 0 1 1 3.7v1.35h-3.37c-10.79 0-17.54 2.05-21.29 5.48h-2.34a11.89 11.89 0 0 0 -3.82 9.18c0 .46 0 .91.07 1.35zm-29.82 73.71h2.34v-6.66a20.7 20.7 0 0 0 -.35-3.87h-14.52a6.48 6.48 0 0 1 1 3.7v1.35h-3.4c-10.79 0-17.54 2-21.29 5.48h-2.31a11.89 11.89 0 0 0 -3.82 9.18c0 .45 0 .9.07 1.35h15.27a3.86 3.86 0 0 1 -.93-2.53c0-3.2 2.44-5.56 10.78-5.56h3.29v2.44a7.08 7.08 0 0 1 -3 5.65h16.9zm-32.53-73.71h16a9 9 0 0 1 -4.45-7.42v-.25h31v-2.44c0-.15 0-.28 0-.42h2.34a27.74 27.74 0 0 0 -2.06-10.53h-13.49a7.78 7.78 0 0 1 1.82 4.88h-16.85a8.87 8.87 0 0 1 2-4.88h-14.31a23.63 23.63 0 0 0 -2.17 10v.51h-2.33a24.17 24.17 0 0 0 2.5 10.55zm-5.57 65.79h13.65a5.19 5.19 0 0 1 .95-2.61h-14.34a15.49 15.49 0 0 0 -.26 2.61zm71.51 7.92h-2.34l-1.84 5.55-2.1-5.55h2.34l-4-10.53h-15.4l4.61 10.53h-2.34l4.61 10.53h24.59l3.93-10.53h2.34l3.93-10.53h-14.83zm-80.86 73.7c0 .69.09 1.39.09 2.11a22.35 22.35 0 0 1 -1.52 8.42h-2.34a13.66 13.66 0 0 1 -25.44 0h2.34a22.35 22.35 0 0 1 -1.52-8.42c0-.72 0-1.42.09-2.11h-16.52c-.05.73-.08 1.45-.08 2.19a33.25 33.25 0 0 0 1 8.34h-2.29a29.47 29.47 0 0 0 5.11 10.53h49.2a29.47 29.47 0 0 0 5.09-10.53h2.34a33.25 33.25 0 0 0 1.05-8.34c0-.74 0-1.46-.08-2.19zm80.81-168.47h-14.34a15.49 15.49 0 0 0 -.26 2.61h13.65a5.19 5.19 0 0 1 .95-2.61zm-32.82 168.47c3.4.52 5.42 3.53 5.42 8.43v2.1h-2.34v10.53h14.4v-10.53h2.34v-6.06a22.91 22.91 0 0 0 -.43-4.47zm98.29-84.23h-13.48a7.77 7.77 0 0 1 1.81 4.88h-16.85a8.87 8.87 0 0 1 2-4.88h-14.3a23.63 23.63 0 0 0 -2.17 10v.51h-2.37a24.2 24.2 0 0 0 2.46 10.53h16a9 9 0 0 1 -4.46-7.42v-.25h31v-2.44c0-.15 0-.28 0-.42h2.34a27.9 27.9 0 0 0 -1.98-10.51zm-.21-74.64v.51.42h-2.34c-.13 6.06-3.17 9.74-7.44 10.53h21.87v-10.53h2.34v-10.53h-19.19c2.84 1.66 4.7 5 4.76 9.6zm23.67 74.72v-.08h-14.41v10.53h-2.34v10.53h14.41v-4.55a26.7 26.7 0 0 1 .58-6h2.34c1.48-6.5 6.19-9.21 17.36-8v-2.52h-17.92a.31.31 0 0 1 -.02.09zm23.83-73.79h-2.34l-1.84 5.56-2.11-5.56h2.34l-4-10.53h-15.4l4.61 10.53h-2.34l4.61 10.53h24.58l3.94-10.53h2.34l3.96-10.53h-14.85zm-76 157.94h-13.5a7.89 7.89 0 0 1 1.82 4.89h-16.85a8.86 8.86 0 0 1 2-4.89h-14.33a23.86 23.86 0 0 0 -2.16 10v.5h-2.34a24.13 24.13 0 0 0 2.46 10.53h16a9 9 0 0 1 -4.45-7.41v-.24h31v-2.45c0-.14 0-.27 0-.42h2.34a27.78 27.78 0 0 0 -2.01-10.51zm-93.38 10.53h-2.34v10.53h14.41v-10.53h2.34v-.5c0-6.36 2.93-9.51 7.07-10h-21.5zm157.47-189.53-.38-1h-16.09l.44 1zm-157.49 168.47h14.41v-1h-14.41zm108.59-170.58a19.51 19.51 0 0 0 -9.07 2.11h17.59a18.22 18.22 0 0 0 -8.52-2.11zm-25.29 170.58a24.35 24.35 0 0 0 -10.17-2.1 24 24 0 0 0 -9.94 2.1zm-149.87 0h18a13.71 13.71 0 0 1 20.54 0h18a28.92 28.92 0 0 0 -7.54-10.52h-2.38a32.31 32.31 0 0 0 -41.42 0h2.34a28.92 28.92 0 0 0 -7.54 10.52zm128.74-170.58a27.66 27.66 0 0 0 -11.11 2.11h22.69a28.45 28.45 0 0 0 -11.58-2.11zm29.75 86.35h20.1a25 25 0 0 0 -20.1 0zm30-84.24h14.41v-10.53h-2.34v-6.32h-14.43v6.32h2.34zm9.26 84.24h14.41v-1h-14.43zm-51.8-1h-15.35l-.34 1h15.29zm-145.48 1h16.26v-10.53h-2.34v-6.33h-16.28v6.33h2.34zm0-84.24h16.26v-5.06h12.89c3.82 0 6.71 2 7.46 5.06h16a17.22 17.22 0 0 0 -4.64-10.53h-2.34c-3.7-3.94-9.33-6.32-16-6.32h-31.99v6.32h2.34zm229.63 84.24v-1.94a22.14 22.14 0 0 0 -9.89 1.94zm13.22-85.26-.34 1h15.29l.38-1zm-148 85.26h16l-.38-1h-16.06zm-15.43-86.35a24 24 0 0 0 -9.93 2.11h20.1a24.16 24.16 0 0 0 -10.17-2.11zm3.6 86.35a28.25 28.25 0 0 0 -11.61-2.11 27.66 27.66 0 0 0 -11.11 2.11zm11.05 82.14a15 15 0 0 0 -8.05 2.1h16.35a16.12 16.12 0 0 0 -8.3-2.1zm71.57-124.25a20.48 20.48 0 0 0 6.71 1.09 17.56 17.56 0 0 0 6-1.09zm-88.23 1.09a28.89 28.89 0 0 0 8.1-1.09h-15.82a27.27 27.27 0 0 0 7.72 1.08zm88.54 84.24a29.19 29.19 0 0 0 8.09-1.09h-15.82a27.29 27.29 0 0 0 7.73 1.08zm58.63-83.23a10.66 10.66 0 0 1 -7.5 3.12c-2.36 0-5.14-.5-10.53-3.28v8.59h-2.34v5.22a25.09 25.09 0 0 0 10.64 2.27c7.14 0 12.87-2.57 17-7.5h2.34a28.45 28.45 0 0 0 4.9-8.85l.63-1.68h-16.07zm-169.37 82.15a16.2 16.2 0 0 0 5.95 1.09 20.66 20.66 0 0 0 6.9-1.09zm-29.77 85.33a33.92 33.92 0 0 0 8.62-1.1h-17.21a33.92 33.92 0 0 0 8.59 1.08zm99.48-169.57h-12.85a16.18 16.18 0 0 0 5.94 1.09 20.67 20.67 0 0 0 6.91-1.11zm12.3 169.57a28.89 28.89 0 0 0 8.1-1.1h-15.83a27 27 0 0 0 7.73 1.08zm-18.1-74.8h2.34a28.45 28.45 0 0 0 4.9-8.85l.63-1.68h-16l.92 2.1a10.66 10.66 0 0 1 -7.5 3.12c-2.36 0-5.14-.51-10.53-3.29v8.6h-2.34v5.22a25.1 25.1 0 0 0 10.57 2.25c7.15 0 12.87-2.56 17.01-7.49z" fill="#20f7e9"/><path d="m99.47 157.74h16.26v-10.53h-2.34v-10.53h2.34v-.59h10.11l.25.59h-2.34l4.46 10.53h2.34l4.45 10.53h18.87l-5.68-10.53h-2.34l-5.68-10.53h2.34l-1.36-2.53a18.59 18.59 0 0 0 8.73-8h2.34a18.52 18.52 0 0 0 2.22-8.93c0-.55 0-1.07-.08-1.6h-2.36a17.22 17.22 0 0 0 -4.64-10.53h-2.34c-3.7-3.94-9.33-6.32-16-6.32h-31.89v6.32h2.34v10.53h2.34v10.53h-2.34v10.53h-2.34v10.53h2.34zm16.26-47.18h12.89c3.82 0 6.71 2 7.46 5.06h2.34a6.43 6.43 0 0 1 .2 1.6c0 4.21-3.2 7.33-7.66 7.33h-12.89v-8.93h-2.34zm-16.26 131.44h44v-10.55h-2.34v-2.53h-27.74v-8h2.34v-10.53h2.34v-10.53h-2.34v-10.53h-2.34v-6.33h-16.26v6.33h2.34v10.53h2.34v10.53h-2.34v10.53h-2.34v10.53h2.34zm70.42 0a13.49 13.49 0 0 0 7.11-5.5h.34v5.5h13.9v-10.55h-2.34v-10.53h2.34v-6.66a20.7 20.7 0 0 0 -.35-3.87h2.34a13.83 13.83 0 0 0 -8.35-10.53h-2.34a28.25 28.25 0 0 0 -11.61-2.11 27.66 27.66 0 0 0 -11.11 2.11h2.34c-4.66 2-7.89 5.6-8.76 10.53h-2.4a15.49 15.49 0 0 0 -.26 2.61h13.65a5.19 5.19 0 0 1 1-2.61h2.34a6.35 6.35 0 0 1 5.45-2.45c2.55 0 4.42.87 5.48 2.45h-2.36a6.48 6.48 0 0 1 1 3.7v1.35h-3.37c-10.79 0-17.54 2-21.29 5.48h-2.34a11.89 11.89 0 0 0 -3.82 9.18c0 .45 0 .9.07 1.35h2.34a12.53 12.53 0 0 0 8.11 10.55h-2.3a16.2 16.2 0 0 0 6 1.09 20.66 20.66 0 0 0 6.9-1.09zm-8.06-10.53a3.86 3.86 0 0 1 -.93-2.53c0-3.2 2.44-5.56 10.78-5.56h3.32v2.44a7.08 7.08 0 0 1 -3 5.65h2.34a9.86 9.86 0 0 1 -5.85 1.76 5.57 5.57 0 0 1 -4.29-1.76zm92.58-84.24h2.34a17.82 17.82 0 0 0 10.72 10.53h-2.34a20.48 20.48 0 0 0 6.71 1.09 17.56 17.56 0 0 0 6-1.09h2.34a12.76 12.76 0 0 0 7.2-6h.08v6h14.44v-10.55h-2.34v-10.53h2.34v-10.53h2.34v-10.53h-2.34v-10.53h-2.34v-6.32h-14.41v6.32h2.34v10.53h2.34v4.54h-.17a10.51 10.51 0 0 0 -4.62-4.54h-2.34a18.22 18.22 0 0 0 -8.52-2.11 19.51 19.51 0 0 0 -9.07 2.11h2.34a18.47 18.47 0 0 0 -8.8 10.53h-2.34a29.05 29.05 0 0 0 -1.59 9.77v.76h-2.32a29.29 29.29 0 0 0 2.01 10.53zm14.49-10.53c0-.25 0-.5 0-.76 0-4.72 1.93-8.1 4.82-9.77h2.28a9 9 0 0 1 4.53-1.18 8.87 8.87 0 0 1 4.51 1.18h-2.34c2.84 1.66 4.7 5 4.76 9.6v.51.42h-2.34c-.13 6.06-3.17 9.74-7.44 10.53h2.32a9.67 9.67 0 0 1 -1.81.17 9.87 9.87 0 0 1 -1.74-.17h-2.34c-4.19-.79-7.34-4.5-7.58-10.53zm-115.06 0a24.17 24.17 0 0 0 2.46 10.53h2.34a20.63 20.63 0 0 0 12.88 10.53h-2.34a27.27 27.27 0 0 0 7.72 1.09 28.89 28.89 0 0 0 8.1-1.09h2.34a18.69 18.69 0 0 0 12.34-10.53h-2.34a22.74 22.74 0 0 0 1.38-4.13h-13.72a7.36 7.36 0 0 1 -3.11 4.13h2.34a9.47 9.47 0 0 1 -5 1.18 9.25 9.25 0 0 1 -4.56-1.18h-2.34a9 9 0 0 1 -4.45-7.42v-.25h31v-2.46c0-.15 0-.28 0-.42h2.34a27.74 27.74 0 0 0 -2.06-10.53h2.34a19.73 19.73 0 0 0 -10.08-10.53h-2.34a25 25 0 0 0 -20.1 0h2.34a21.33 21.33 0 0 0 -10.65 10.53h-2.34a23.63 23.63 0 0 0 -2.17 10v.51zm18.79-10.53h2.37a8.24 8.24 0 0 1 6.45-3 8.44 8.44 0 0 1 6.6 3h-2.34a7.78 7.78 0 0 1 1.79 4.83h-16.85a8.87 8.87 0 0 1 1.98-4.85zm33.13 21.06a12.51 12.51 0 0 0 8.14 10.53h-2.34a16.18 16.18 0 0 0 5.94 1.09 20.67 20.67 0 0 0 6.91-1.09h2.34a13.54 13.54 0 0 0 7.08-5.48h.34v5.48h13.9v-10.55h-2.34v-10.53h2.34v-6.68a20.7 20.7 0 0 0 -.35-3.87h2.34a13.83 13.83 0 0 0 -8.35-10.53h-2.34a28.45 28.45 0 0 0 -11.61-2.11 27.66 27.66 0 0 0 -11.11 2.11h2.35c-4.67 2.06-7.89 5.61-8.76 10.53h-2.34a15.49 15.49 0 0 0 -.26 2.61h13.65a5.19 5.19 0 0 1 .95-2.61h2.34a6.35 6.35 0 0 1 5.42-2.43c2.55 0 4.42.87 5.48 2.45h-2.34a6.58 6.58 0 0 1 1 3.7v1.35h-3.34c-10.79 0-17.54 2.05-21.29 5.48h-2.34a11.89 11.89 0 0 0 -3.82 9.18c0 .46 0 .91.07 1.35zm22.78-8.09h3.29v2.44a7.08 7.08 0 0 1 -3 5.65h2.34a9.79 9.79 0 0 1 -5.85 1.77 5.54 5.54 0 0 1 -4.29-1.77h-2.34a3.83 3.83 0 0 1 -.93-2.53c0-3.22 2.44-5.58 10.78-5.58zm8.16 81.8 3.93-10.53h2.37l3.94-10.53h-2.34l.38-1h-15.36l-.34 1h2.34l-3.5 10.53h-2.34l-3.5 10.53h-2.34l-1.84 5.55-2.1-5.55h2.34l-4-10.53h2.34l-4-10.53h-2.34l-.38-1h-16.06l.44 1h2.34l4.61 10.53h-2.29l4.61 10.53h-2.34l4.61 10.53h2.34l4.56 10.53h-2.34l.92 2.1a10.66 10.66 0 0 1 -7.5 3.12c-2.36 0-5.14-.51-10.53-3.29v8.6h-2.33v5.22a25.1 25.1 0 0 0 10.6 2.25c7.15 0 12.87-2.56 17-7.49h2.4a28.45 28.45 0 0 0 4.9-8.85l.63-1.68h2.34l3.94-10.53h-2.34l3.94-10.53zm120.58-105.3.38-1h-15.33l-.34 1h2.34l-3.5 10.53h-2.34l-3.49 10.51h-2.34l-1.85 5.56-2.1-5.56h2.29l-4-10.53h2.34l-4-10.53h-2.34l-.38-1h-16.01l.44 1h2.34l4.61 10.53h-2.34l4.61 10.53h-2.34l4.61 10.53h2.34l4.6 10.53h-2.34l.93 2.1a10.66 10.66 0 0 1 -7.5 3.12c-2.36 0-5.14-.5-10.53-3.28v8.59h-2.34v5.22a25.09 25.09 0 0 0 10.61 2.28c7.14 0 12.87-2.57 17-7.5h2.34a28.45 28.45 0 0 0 4.9-8.85l.63-1.68h2.34l3.93-10.53h-2.34l3.94-10.53h2.34l3.94-10.53h2.34l3.94-10.53zm-77.28 84.22h-2.34a25 25 0 0 0 -20.1 0h2.34a21.29 21.29 0 0 0 -10.65 10.53h-2.34a23.63 23.63 0 0 0 -2.17 10v.51h-2.34a24.2 24.2 0 0 0 2.46 10.53h2.34a20.59 20.59 0 0 0 12.85 10.57h-2.34a27.29 27.29 0 0 0 7.73 1.09 29.19 29.19 0 0 0 8.09-1.09h2.34a18.67 18.67 0 0 0 12.34-10.53h-2.34a22.75 22.75 0 0 0 1.39-4.13h-13.73a7.45 7.45 0 0 1 -3.12 4.13h2.34a9.53 9.53 0 0 1 -5 1.17 9.21 9.21 0 0 1 -4.56-1.17h-2.34a9 9 0 0 1 -4.46-7.42v-.25h31v-2.44c0-.15 0-.28 0-.42h2.34a27.9 27.9 0 0 0 -2.05-10.53h2.32a19.74 19.74 0 0 0 -10-10.55zm-4 15.41h-16.82a8.87 8.87 0 0 1 2-4.88h2.34a8.27 8.27 0 0 1 6.45-2.95 8.44 8.44 0 0 1 6.61 2.95h-2.34a7.77 7.77 0 0 1 1.76 4.88zm-24.8 68.82h-2.34a24.36 24.36 0 0 0 -10.18-2.1 24 24 0 0 0 -9.93 2.1h2.34a21.45 21.45 0 0 0 -10.65 10.53h-2.34a23.86 23.86 0 0 0 -2.16 10v.5h-2.34a24.13 24.13 0 0 0 2.46 10.53h2.34a20.64 20.64 0 0 0 12.87 10.53h-2.27a27 27 0 0 0 7.73 1.1 28.89 28.89 0 0 0 8.1-1.1h2.33a18.68 18.68 0 0 0 12.35-10.53h-2.34a23.27 23.27 0 0 0 1.38-4.13h-13.75a7.32 7.32 0 0 1 -3.11 4.13h2.31a9.44 9.44 0 0 1 -5 1.18 9.25 9.25 0 0 1 -4.56-1.18h-2.34a9 9 0 0 1 -4.45-7.41v-.24h31v-2.45c0-.14 0-.27 0-.42h2.35a27.78 27.78 0 0 0 -2-10.53h2.34a19.76 19.76 0 0 0 -10.11-10.51zm-3.92 15.42h-16.82a8.79 8.79 0 0 1 2-4.89h2.34a8.23 8.23 0 0 1 6.44-2.95 8.44 8.44 0 0 1 6.61 2.95h-2.34a7.89 7.89 0 0 1 1.8 4.89zm-89.45-15.42h-2.34a28.92 28.92 0 0 0 -7.49-10.52h-2.34a32.31 32.31 0 0 0 -41.42 0h2.34a28.92 28.92 0 0 0 -7.58 10.52h2.34a32.25 32.25 0 0 0 -2.42 10.53h-2.32c0 .73-.08 1.45-.08 2.19a33.25 33.25 0 0 0 1 8.34h-2.29a29.47 29.47 0 0 0 5.09 10.53h2.34a29.18 29.18 0 0 0 16 10.53h-2.34a34.32 34.32 0 0 0 17.24 0h2.34a29.18 29.18 0 0 0 16-10.53h-2.34a29.47 29.47 0 0 0 5.09-10.53h2.35a33.25 33.25 0 0 0 1.05-8.34c0-.74 0-1.46-.08-2.19h2.34a32 32 0 0 0 -2.45-10.53zm-16.35 12.64a22.35 22.35 0 0 1 -1.52 8.42h-2.34a13.66 13.66 0 0 1 -25.44 0h2.34a22.35 22.35 0 0 1 -1.52-8.42c0-.72 0-1.42.09-2.11h2.34a18.39 18.39 0 0 1 3.88-10.53h-2.31a13.71 13.71 0 0 1 20.54 0h2.34a18.39 18.39 0 0 1 3.88 10.53h-2.34c.05.69.09 1.38.09 2.11zm62.69-12.64h-2.34a16.12 16.12 0 0 0 -8.3-2.1 15 15 0 0 0 -8.05 2.1h2.34a14.62 14.62 0 0 0 -5.51 6.66v-6.66h-2.31v-1h-14.41v1h2.34v10.53h-2.34v10.53h-2.34v10.53h2.34v10.53h14.41v-10.53h-2.34v-10.53h2.34v-.5c0-6.36 2.93-9.51 7.07-10h2.34c3.4.52 5.42 3.53 5.42 8.43v2.1h-2.34v10.53h2.34v10.53h14.4v-10.56h-2.34v-10.53h2.34v-6.06a22.91 22.91 0 0 0 -.43-4.47h2.34c-.91-4.62-3.29-8.37-6.94-10.53zm-14.79 10.53a10.56 10.56 0 0 1 1.27-.08 7.48 7.48 0 0 1 1.07.08zm139.69-96.7a22.14 22.14 0 0 0 -9.89 1.94h2.34c-3.88 1.9-6.53 5.29-8 10.53v-10.53h-2.34v-1h-14.43v1h2.34v10.53h-2.34v10.53h-2.34v10.53h2.34v10.55h14.41v-10.55h-2.34v-4.55a26.7 26.7 0 0 1 .58-6h2.34c1.48-6.5 6.19-9.21 17.36-8v-2.52h2.34v-10.52h-2.34zm-17.94 12.55v-.08a.31.31 0 0 1 .03.08z" fill="#fff"/><path d="m0 168.27h84.24v-10.53h-84.24z" fill="#fe09ff"/><path d="m0 333.23h84.24v-7h-84.24z" fill="#fe09ff"/></svg>