<svg xmlns="http://www.w3.org/2000/svg" viewBox="0 0 432 432"><defs><style>.cls-1{fill:#fe09ff;}.cls-2{fill:#20f7e9;}.cls-3{fill:#2f2615;}</style></defs><g id="type"><rect class="cls-1" y="242.21" width="84.24" height="3.51"/><rect class="cls-1" x="84.24" y="147.44" width="10.53" height="10.53"/><rect class="cls-1" x="84.24" y="231.68" width="10.53" height="10.53"/><rect class="cls-1" x="84.24" y="315.92" width="10.53" height="10.53"/><rect class="cls-2" x="84.24" y="147.44" width="2.34" height="10.53"/><rect class="cls-2" x="84.24" y="231.68" width="2.34" height="10.53"/><rect class="cls-2" x="84.24" y="315.92" width="2.34" height="10.53"/><path class="cls-1" d="M244,315.92h15.46a23.54,23.54,0,0,0,1.38-4.13H247.14A7.39,7.39,0,0,1,244,315.92Zm-128.3-179h2.34v-.59h10.11l.25.59h-2.34l4.46,10.53h17.66l-5.68-10.53h2.34l-1.36-2.53a18.59,18.59,0,0,0,8.73-8H101.81v10.53H99.47v10.53h16.26Zm68.49,10.53h15.46a22.74,22.74,0,0,0,1.38-4.13H187.33A7.32,7.32,0,0,1,184.22,147.44Zm-40.77,81.71H115.73v-8h2.34V210.62H101.81v10.53H99.47v10.53h44Zm113.3-81.71h19.73c-4.19-.79-7.34-4.49-7.58-10.53h2.34c0-.25,0-.5,0-.76,0-4.72,1.93-8.1,4.82-9.77H258.65a29.14,29.14,0,0,0-1.59,9.77c0,.26,0,.51,0,.76h-2.34A29.25,29.25,0,0,0,256.75,147.44Zm16,84.24h15.46a22.75,22.75,0,0,0,1.39-4.13H275.86A7.36,7.36,0,0,1,272.75,231.68ZM221,147.44a3.83,3.83,0,0,1-.93-2.53c0-3.2,2.44-5.56,10.78-5.56h3.29v2.45a7.08,7.08,0,0,1-3,5.64h16.9V136.91h2.34v-6.66a20.7,20.7,0,0,0-.35-3.87H235.5a6.59,6.59,0,0,1,1,3.71v1.34h-3.37c-10.79,0-17.54,2-21.29,5.48h-2.34a11.9,11.9,0,0,0-3.82,9.18c0,.46,0,.91.07,1.35Zm-29.82,73.71h2.34v-6.66a20.7,20.7,0,0,0-.35-3.87H178.64a6.5,6.5,0,0,1,1,3.7v1.35h-3.37c-10.79,0-17.54,2.05-21.29,5.48h-2.34a11.9,11.9,0,0,0-3.82,9.18c0,.46,0,.91.07,1.35h15.27a3.83,3.83,0,0,1-.93-2.53c0-3.2,2.44-5.56,10.78-5.56h3.29V226a7.08,7.08,0,0,1-3,5.65h16.9Zm-32.57-73.71h16a9,9,0,0,1-4.45-7.41v-.26h31v-2.44c0-.14,0-.28,0-.42h2.34a27.78,27.78,0,0,0-2.06-10.53H188a7.81,7.81,0,0,1,1.82,4.89H173a8.9,8.9,0,0,1,2-4.89h-14.3a23.63,23.63,0,0,0-2.17,10c0,.18,0,.34,0,.51h-2.34A24.17,24.17,0,0,0,158.64,147.44Zm-5.53,65.79h13.65a5.22,5.22,0,0,1,1-2.61H153.37A15.6,15.6,0,0,0,153.11,213.23Zm71.51,7.92h-2.34l-1.84,5.56-2.1-5.56h2.34l-4-10.53h-15.4l4.61,10.53h-2.34l4.61,10.53h24.59l3.94-10.53H239L243,210.62H228.12Zm-80.86,73.71c.05.68.09,1.38.09,2.1a22.44,22.44,0,0,1-1.52,8.43H140a13.67,13.67,0,0,1-25.44,0h2.34a22.44,22.44,0,0,1-1.52-8.43c0-.72,0-1.42.09-2.1H98.94c0,.72-.08,1.45-.08,2.19a33.25,33.25,0,0,0,1,8.34H97.57a29.63,29.63,0,0,0,5.09,10.53h49.22A29.63,29.63,0,0,0,157,305.39h2.34a33.25,33.25,0,0,0,1.05-8.34c0-.74,0-1.47-.08-2.19Zm80.81-168.48H210.23A15.7,15.7,0,0,0,210,129h13.65A5.22,5.22,0,0,1,224.57,126.38ZM191.75,294.86c3.4.51,5.42,3.52,5.42,8.42v2.11h-2.34v10.53h14.4V305.39h2.34v-6.07a22.8,22.8,0,0,0-.43-4.46ZM290,210.62H276.56a7.77,7.77,0,0,1,1.81,4.88H261.52a8.87,8.87,0,0,1,2-4.88H249.2a23.63,23.63,0,0,0-2.17,10c0,.18,0,.34,0,.51h-2.34a24.17,24.17,0,0,0,2.46,10.53h16a9,9,0,0,1-4.46-7.41V224h31v-2.44c0-.14,0-.28,0-.42h2.34A27.93,27.93,0,0,0,290,210.62ZM289.83,136v.51c0,.14,0,.28,0,.42h-2.34c-.13,6.06-3.17,9.74-7.44,10.53H301.9V136.91h2.34V126.38H285.07C287.91,128,289.77,131.38,289.83,136ZM313.5,210.7v-.08H299.09v10.53h-2.34v10.53h14.41v-4.55a26.7,26.7,0,0,1,.58-6h2.34c1.48-6.5,6.19-9.2,17.36-8v-2.52H313.52A.24.24,0,0,1,313.5,210.7Zm23.83-73.79H335l-1.85,5.56-2.1-5.56h2.34l-4-10.53H314l4.61,10.53h-2.34l4.61,10.53h24.58l3.94-10.53h2.34l3.94-10.53H340.83Zm-76,158H247.83a7.84,7.84,0,0,1,1.82,4.88H232.8a8.73,8.73,0,0,1,2-4.88H220.47a23.78,23.78,0,0,0-2.16,10c0,.17,0,.34,0,.51H216a24.2,24.2,0,0,0,2.46,10.53h16A9,9,0,0,1,230,308.5v-.25h31v-2.44c0-.15,0-.28,0-.42h2.34A27.74,27.74,0,0,0,261.31,294.86Zm-93.38,10.53h-2.34v10.53H180V305.39h2.34v-.51c0-6.36,2.93-9.5,7.07-10H167.93ZM325.42,115.85l-.38-1H309l.44,1ZM167.93,284.33h14.41v-1H167.93ZM276.52,113.74a19.51,19.51,0,0,0-9.07,2.11H285A18.22,18.22,0,0,0,276.52,113.74ZM251.23,284.33a24.21,24.21,0,0,0-10.18-2.11,24,24,0,0,0-9.93,2.11Zm-149.87,0h18a13.69,13.69,0,0,1,20.54,0h18a29,29,0,0,0-7.54-10.53H148a32.34,32.34,0,0,0-41.42,0h2.34A29,29,0,0,0,101.36,284.33ZM230.1,113.74A27.66,27.66,0,0,0,219,115.85h22.72A28.45,28.45,0,0,0,230.1,113.74Zm29.75,86.35H280a25,25,0,0,0-20.1,0Zm30-84.24h14.41V105.32H301.9V99H287.49v6.32h2.34Zm9.26,84.24H313.5v-1H299.09Zm-51.8-1H232l-.34,1h15.29Zm-145.48,1h16.26V189.56h-2.34v-6.32H99.47v6.32h2.34Zm0-84.24h16.26v-5.06H131c3.82,0,6.71,2,7.46,5.06h16a17.25,17.25,0,0,0-4.64-10.53H147.4c-3.7-3.94-9.33-6.32-16-6.32H99.47v6.32h2.34Zm229.63,84.24v-1.94a22.28,22.28,0,0,0-9.89,1.94Zm13.23-85.25-.34,1h15.29l.38-1Zm-148,85.25h16l-.38-1H196.24Zm-15.43-86.35a23.93,23.93,0,0,0-9.93,2.11h20.1A24.32,24.32,0,0,0,181.25,113.74Zm3.6,86.35A28.41,28.41,0,0,0,173.24,198a27.66,27.66,0,0,0-11.11,2.11Zm11.05,82.13a14.91,14.91,0,0,0-8.05,2.11H204.2A16.12,16.12,0,0,0,195.9,282.22ZM267.47,158a20.22,20.22,0,0,0,6.71,1.1,17.57,17.57,0,0,0,6-1.1Zm-88.23,1.1a28.89,28.89,0,0,0,8.1-1.1H171.52A26.92,26.92,0,0,0,179.24,159.07Zm88.54,84.23a28.82,28.82,0,0,0,8.09-1.09H260.05A26.94,26.94,0,0,0,267.78,243.3Zm58.63-83.22a10.69,10.69,0,0,1-7.5,3.11c-2.36,0-5.14-.5-10.53-3.28v8.59H306v5.23A25.07,25.07,0,0,0,316.65,176c7.14,0,12.87-2.57,17-7.5H336a28.39,28.39,0,0,0,4.9-8.84l.63-1.69h-16ZM157,242.21a16.2,16.2,0,0,0,6,1.09,20.4,20.4,0,0,0,6.9-1.09Zm-29.77,85.33a33.93,33.93,0,0,0,8.62-1.09H118.65A33.93,33.93,0,0,0,127.27,327.54ZM226.75,158H213.9a16.19,16.19,0,0,0,5.94,1.1A20.4,20.4,0,0,0,226.75,158Zm12.3,169.57a28.89,28.89,0,0,0,8.1-1.09H231.32A27.4,27.4,0,0,0,239.05,327.54ZM221,252.74h2.34a28.45,28.45,0,0,0,4.9-8.85l.63-1.68h-16l.92,2.11a10.69,10.69,0,0,1-7.5,3.11c-2.36,0-5.14-.5-10.53-3.28v8.59h-2.34V258a25.12,25.12,0,0,0,10.61,2.28C211.09,260.24,216.81,257.67,221,252.74Z"/><path class="cls-2" d="M239.35,315.92h15.46a23.54,23.54,0,0,0,1.38-4.13H242.46A7.39,7.39,0,0,1,239.35,315.92Zm-128.3-179h2.34v-.59H123.5l.25.59h-2.34l4.46,10.53h17.66l-5.68-10.53h2.34l-1.36-2.53a18.59,18.59,0,0,0,8.73-8H97.13v10.53H94.79v10.53h16.26Zm68.49,10.53H195a22.74,22.74,0,0,0,1.38-4.13H182.65A7.32,7.32,0,0,1,179.54,147.44Zm-40.77,81.71H111.05v-8h2.34V210.62H97.13v10.53H94.79v10.53h44Zm113.3-81.71H271.8c-4.19-.79-7.34-4.49-7.58-10.53h2.34c0-.25,0-.5,0-.76,0-4.72,1.93-8.1,4.82-9.77H254a29.14,29.14,0,0,0-1.59,9.77c0,.26,0,.51,0,.76h-2.34A29.25,29.25,0,0,0,252.07,147.44Zm16,84.24h15.46a22.75,22.75,0,0,0,1.39-4.13H271.19A7.41,7.41,0,0,1,268.07,231.68Zm-51.72-84.24a3.83,3.83,0,0,1-.93-2.53c0-3.2,2.44-5.56,10.78-5.56h3.29v2.45a7.08,7.08,0,0,1-3,5.64h16.9V136.91h2.34v-6.66a20.7,20.7,0,0,0-.35-3.87H230.82a6.59,6.59,0,0,1,1,3.71v1.34h-3.37c-10.79,0-17.54,2-21.29,5.48h-2.34a11.9,11.9,0,0,0-3.82,9.18c0,.46,0,.91.07,1.35Zm-29.82,73.71h2.34v-6.66a20.7,20.7,0,0,0-.35-3.87H174a6.5,6.5,0,0,1,1,3.7v1.35H171.6c-10.79,0-17.54,2.05-21.29,5.48H148a11.9,11.9,0,0,0-3.82,9.18c0,.46,0,.91.07,1.35h15.27a3.83,3.83,0,0,1-.93-2.53c0-3.2,2.44-5.56,10.78-5.56h3.29V226a7.08,7.08,0,0,1-3,5.65h16.9ZM154,147.44h16a9,9,0,0,1-4.45-7.41v-.26h31v-2.44c0-.14,0-.28,0-.42h2.34a27.78,27.78,0,0,0-2.06-10.53H183.34a7.81,7.81,0,0,1,1.82,4.89H168.31a8.9,8.9,0,0,1,2-4.89H156a23.63,23.63,0,0,0-2.17,10c0,.18,0,.34,0,.51H151.5A24.17,24.17,0,0,0,154,147.44Zm-5.53,65.79h13.65a5.22,5.22,0,0,1,.95-2.61H148.69A15.6,15.6,0,0,0,148.43,213.23Zm71.51,7.92H217.6l-1.84,5.56-2.1-5.56H216l-4-10.53h-15.4l4.61,10.53h-2.34l4.61,10.53h24.59L232,221.15h2.34l3.93-10.53H223.44Zm-80.86,73.71c0,.68.09,1.38.09,2.1a22.44,22.44,0,0,1-1.52,8.43h-2.34a13.67,13.67,0,0,1-25.44,0h2.34a22.44,22.44,0,0,1-1.52-8.43c0-.72,0-1.42.09-2.1H94.26c-.05.72-.08,1.45-.08,2.19a33.25,33.25,0,0,0,1,8.34H92.89A29.63,29.63,0,0,0,98,315.92H147.2a29.63,29.63,0,0,0,5.09-10.53h2.34a33.25,33.25,0,0,0,1.05-8.34c0-.74,0-1.47-.08-2.19Zm80.81-168.48H205.55a15.7,15.7,0,0,0-.26,2.61h13.65A5.22,5.22,0,0,1,219.89,126.38ZM187.07,294.86c3.4.51,5.42,3.52,5.42,8.42v2.11h-2.34v10.53h14.4V305.39h2.34v-6.07a22.8,22.8,0,0,0-.43-4.46Zm98.29-84.24H271.88a7.77,7.77,0,0,1,1.81,4.88H256.84a8.87,8.87,0,0,1,2-4.88h-14.3a23.63,23.63,0,0,0-2.17,10c0,.18,0,.34,0,.51H240a24.17,24.17,0,0,0,2.46,10.53h16a9,9,0,0,1-4.46-7.41V224h31v-2.44c0-.14,0-.28,0-.42h2.34A27.93,27.93,0,0,0,285.36,210.62ZM285.15,136v.51c0,.14,0,.28,0,.42h-2.34c-.13,6.06-3.17,9.74-7.44,10.53h21.87V136.91h2.34V126.38H280.39C283.23,128,285.09,131.38,285.15,136Zm23.67,74.72v-.08H294.41v10.53h-2.34v10.53h14.41v-4.55a26.7,26.7,0,0,1,.58-6h2.34c1.48-6.5,6.19-9.2,17.36-8v-2.52H308.84A.24.24,0,0,1,308.82,210.7Zm23.83-73.79h-2.34l-1.84,5.56-2.11-5.56h2.34l-4-10.53h-15.4l4.61,10.53h-2.34l4.61,10.53h24.58l3.94-10.53h2.34L351,126.38H336.15Zm-76,158H243.15a7.84,7.84,0,0,1,1.82,4.88H228.12a8.8,8.8,0,0,1,2-4.88H215.79a23.78,23.78,0,0,0-2.16,10c0,.17,0,.34,0,.51h-2.34a24.2,24.2,0,0,0,2.46,10.53h16a9,9,0,0,1-4.45-7.42v-.25h31v-2.44c0-.15,0-.28,0-.42h2.34A27.74,27.74,0,0,0,256.63,294.86Zm-93.38,10.53h-2.34v10.53h14.41V305.39h2.34v-.51c0-6.36,2.93-9.5,7.07-10H163.25ZM320.74,115.85l-.38-1H304.27l.44,1ZM163.25,284.33h14.41v-1H163.25ZM271.84,113.74a19.51,19.51,0,0,0-9.07,2.11h17.59A18.22,18.22,0,0,0,271.84,113.74ZM246.55,284.33a25,25,0,0,0-20.11,0Zm-149.87,0h18a13.69,13.69,0,0,1,20.54,0h18a29,29,0,0,0-7.54-10.53H143.3a32.34,32.34,0,0,0-41.42,0h2.34A29,29,0,0,0,96.68,284.33ZM225.42,113.74a27.66,27.66,0,0,0-11.11,2.11H237A28.45,28.45,0,0,0,225.42,113.74Zm29.75,86.35h20.1a25,25,0,0,0-20.1,0Zm30-84.24h14.41V105.32h-2.34V99H282.81v6.32h2.34Zm9.26,84.24h14.41v-1H294.41Zm-51.8-1H227.28l-.34,1h15.29Zm-145.48,1h16.26V189.56h-2.34v-6.32H94.79v6.32h2.34Zm0-84.24h16.26v-5.06h12.89c3.82,0,6.71,2,7.46,5.06h16a17.25,17.25,0,0,0-4.64-10.53h-2.34c-3.7-3.94-9.33-6.32-16-6.32H94.79v6.32h2.34Zm229.63,84.24v-1.94a22.28,22.28,0,0,0-9.89,1.94ZM340,114.84l-.34,1h15.29l.38-1ZM192,200.09h16l-.38-1H191.56Zm-15.43-86.35a24,24,0,0,0-9.93,2.11h20.1A24.32,24.32,0,0,0,176.57,113.74Zm3.6,86.35A28.41,28.41,0,0,0,168.56,198a27.66,27.66,0,0,0-11.11,2.11Zm11.05,82.13a14.91,14.91,0,0,0-8.05,2.11h16.35A16.12,16.12,0,0,0,191.22,282.22ZM262.79,158a20.22,20.22,0,0,0,6.71,1.1,17.57,17.57,0,0,0,6-1.1Zm-88.23,1.1a28.89,28.89,0,0,0,8.1-1.1H166.84A26.92,26.92,0,0,0,174.56,159.07ZM263.1,243.3a28.82,28.82,0,0,0,8.09-1.09H255.37A26.94,26.94,0,0,0,263.1,243.3Zm58.63-83.22a10.69,10.69,0,0,1-7.5,3.11c-2.36,0-5.14-.5-10.53-3.28v8.59h-2.34v5.23A25.07,25.07,0,0,0,312,176c7.14,0,12.87-2.57,17-7.5h2.34a28.39,28.39,0,0,0,4.9-8.84l.63-1.69H320.8ZM152.36,242.21a16.2,16.2,0,0,0,5.95,1.09,20.4,20.4,0,0,0,6.9-1.09Zm-29.77,85.33a33.93,33.93,0,0,0,8.62-1.09H114A33.93,33.93,0,0,0,122.59,327.54ZM222.07,158H209.22a16.19,16.19,0,0,0,5.94,1.1A20.4,20.4,0,0,0,222.07,158Zm12.3,169.57a28.89,28.89,0,0,0,8.1-1.09H226.64A27.4,27.4,0,0,0,234.37,327.54Zm-18.1-74.8h2.34a28.45,28.45,0,0,0,4.9-8.85l.63-1.68h-16l.92,2.11a10.69,10.69,0,0,1-7.5,3.11c-2.36,0-5.14-.5-10.53-3.28v8.59h-2.34V258a25.12,25.12,0,0,0,10.61,2.28C206.41,260.24,212.13,257.67,216.27,252.74Z"/><path class="cls-3" d="M99.47,158h16.26V147.44h-2.34V136.91h2.34v-.59h10.11l.25.59h-2.34l4.46,10.53h2.34L135,158h18.87l-5.68-10.53h-2.34l-5.68-10.53h2.34l-1.36-2.53a18.59,18.59,0,0,0,8.73-8h2.34a18.5,18.5,0,0,0,2.22-8.93c0-.54,0-1.07-.08-1.6H152a17.25,17.25,0,0,0-4.64-10.53h-2.34c-3.7-3.94-9.33-6.32-16-6.32H97.13v6.32h2.34v10.53h2.34v10.53H99.47v10.53H97.13v10.53h2.34Zm16.26-47.18h12.89c3.82,0,6.71,2,7.46,5.06h2.34a6.43,6.43,0,0,1,.2,1.6c0,4.21-3.2,7.33-7.66,7.33H118.07v-8.93h-2.34ZM99.47,242.21h44V231.68h-2.34v-2.53H113.39v-8h2.34V210.62h2.34V200.09h-2.34V189.56h-2.34v-6.32H97.13v6.32h2.34v10.53h2.34v10.53H99.47v10.53H97.13v10.53h2.34Zm70.42,0a13.49,13.49,0,0,0,7.08-5.48h.34v5.48h13.9V231.68h-2.34V221.15h2.34v-6.66a20.7,20.7,0,0,0-.35-3.87h2.34a13.83,13.83,0,0,0-8.35-10.53h-2.34A28.41,28.41,0,0,0,170.9,198a27.66,27.66,0,0,0-11.11,2.11h2.34c-4.66,2.06-7.89,5.61-8.76,10.53H151a15.6,15.6,0,0,0-.26,2.61h13.65a5.22,5.22,0,0,1,1-2.61h2.34a6.35,6.35,0,0,1,5.45-2.45c2.55,0,4.42.88,5.48,2.45H176.3a6.5,6.5,0,0,1,1,3.7v1.35h-3.37c-10.79,0-17.54,2.05-21.29,5.48h-2.34a11.9,11.9,0,0,0-3.82,9.18c0,.46,0,.91.07,1.35h2.34A12.51,12.51,0,0,0,157,242.21H154.7a16.2,16.2,0,0,0,6,1.09,20.4,20.4,0,0,0,6.9-1.09Zm-8.06-10.53a3.83,3.83,0,0,1-.93-2.53c0-3.2,2.44-5.56,10.78-5.56H175V226a7.08,7.08,0,0,1-3,5.65h2.34a9.79,9.79,0,0,1-5.85,1.77,5.54,5.54,0,0,1-4.29-1.77Zm92.58-84.24h2.34A17.82,17.82,0,0,0,267.47,158h-2.34a20.22,20.22,0,0,0,6.71,1.1,17.57,17.57,0,0,0,6-1.1h2.34a12.76,12.76,0,0,0,7.2-6h.08v6H301.9V147.44h-2.34V136.91h2.34V126.38h2.34V115.85H301.9V105.32h-2.34V99H285.15v6.32h2.34v10.53h2.34v4.55h-.17a10.48,10.48,0,0,0-4.62-4.55H282.7a18.22,18.22,0,0,0-8.52-2.11,19.51,19.51,0,0,0-9.07,2.11h2.34a18.47,18.47,0,0,0-8.8,10.53h-2.34a29.14,29.14,0,0,0-1.59,9.77c0,.26,0,.51,0,.76H252.4A29.25,29.25,0,0,0,254.41,147.44Zm14.49-10.53c0-.25,0-.5,0-.76,0-4.72,1.93-8.1,4.82-9.77H276a9,9,0,0,1,4.53-1.18,8.87,8.87,0,0,1,4.51,1.18h-2.34c2.84,1.66,4.7,5,4.76,9.6v.51c0,.14,0,.28,0,.42h-2.34c-.13,6.06-3.17,9.74-7.44,10.53H280a9.67,9.67,0,0,1-1.81.17,9,9,0,0,1-1.74-.17h-2.34c-4.19-.79-7.34-4.49-7.58-10.53Zm-115.06,0a24.17,24.17,0,0,0,2.46,10.53h2.34A20.63,20.63,0,0,0,171.52,158h-2.34a26.92,26.92,0,0,0,7.72,1.1A28.89,28.89,0,0,0,185,158h2.34a18.69,18.69,0,0,0,12.34-10.53h-2.34a22.74,22.74,0,0,0,1.38-4.13H185a7.32,7.32,0,0,1-3.11,4.13h2.34a9.47,9.47,0,0,1-5,1.18,9.25,9.25,0,0,1-4.56-1.18h-2.34a9,9,0,0,1-4.45-7.41v-.26h31v-2.44c0-.14,0-.28,0-.42h2.34a27.78,27.78,0,0,0-2.06-10.53h2.34a19.76,19.76,0,0,0-10.08-10.53h-2.34a24.32,24.32,0,0,0-10.17-2.11,24,24,0,0,0-9.93,2.11h2.34a21.37,21.37,0,0,0-10.65,10.53h-2.34a23.63,23.63,0,0,0-2.17,10c0,.18,0,.34,0,.51Zm18.79-10.53H175a8.24,8.24,0,0,1,6.45-2.95,8.44,8.44,0,0,1,6.6,2.95h-2.34a7.81,7.81,0,0,1,1.82,4.89H170.65A8.9,8.9,0,0,1,172.63,126.38Zm33.13,21.06A12.51,12.51,0,0,0,213.9,158h-2.34a16.19,16.19,0,0,0,5.94,1.1,20.4,20.4,0,0,0,6.91-1.1h2.34a13.53,13.53,0,0,0,7.08-5.47h.34V158h13.9V147.44h-2.34V136.91h2.34v-6.66a20.7,20.7,0,0,0-.35-3.87h2.34a13.85,13.85,0,0,0-8.35-10.53h-2.34a28.45,28.45,0,0,0-11.61-2.11,27.66,27.66,0,0,0-11.11,2.11H219c-4.67,2.06-7.89,5.61-8.76,10.53h-2.34a15.7,15.7,0,0,0-.26,2.61h13.65a5.22,5.22,0,0,1,.95-2.61h2.34a6.37,6.37,0,0,1,5.45-2.44c2.55,0,4.42.87,5.48,2.44h-2.34a6.59,6.59,0,0,1,1,3.71v1.34H230.8c-10.79,0-17.54,2-21.29,5.48h-2.34a11.9,11.9,0,0,0-3.82,9.18c0,.46,0,.91.07,1.35Zm22.78-8.09h3.29v2.45a7.08,7.08,0,0,1-3,5.64h2.34a9.79,9.79,0,0,1-5.85,1.77,5.54,5.54,0,0,1-4.29-1.77h-2.34a3.83,3.83,0,0,1-.93-2.53C217.76,141.71,220.2,139.35,228.54,139.35Zm8.16,81.8,3.93-10.53H243l3.94-10.53h-2.34l.38-1H229.62l-.34,1h2.34l-3.5,10.53h-2.34l-3.5,10.53h-2.34l-1.84,5.56-2.1-5.56h2.34l-4-10.53h2.34l-4-10.53h-2.34l-.38-1H193.9l.44,1h2.34l4.61,10.53H199l4.61,10.53h-2.34l4.61,10.53h2.34l4.61,10.53h-2.34l.92,2.11a10.69,10.69,0,0,1-7.5,3.11c-2.36,0-5.14-.5-10.53-3.28v8.59H191V258a25.12,25.12,0,0,0,10.61,2.28c7.15,0,12.87-2.57,17-7.5H221a28.45,28.45,0,0,0,4.9-8.85l.63-1.68h2.34l3.94-10.53h-2.34l3.94-10.53Zm120.58-105.3.38-1H342.33l-.34,1h2.34l-3.5,10.53h-2.34L335,136.91h-2.34l-1.85,5.56-2.1-5.56H331l-4-10.53h2.34l-4-10.53h-2.34l-.38-1H306.61l.44,1h2.34L314,126.38h-2.34l4.61,10.53h-2.34l4.61,10.53h2.34l4.6,10.53h-2.34l.93,2.11a10.69,10.69,0,0,1-7.5,3.11c-2.36,0-5.14-.5-10.53-3.28v8.59H303.7v5.23A25.07,25.07,0,0,0,314.31,176c7.14,0,12.87-2.57,17-7.5h2.34a28.39,28.39,0,0,0,4.9-8.84l.63-1.69h2.34l3.93-10.53h-2.34l3.94-10.53h2.34l3.94-10.53h2.34l3.94-10.53ZM280,200.09h-2.34a25,25,0,0,0-20.1,0h2.34a21.37,21.37,0,0,0-10.65,10.53h-2.34a23.63,23.63,0,0,0-2.17,10c0,.18,0,.34,0,.51h-2.34a24.17,24.17,0,0,0,2.46,10.53h2.34a20.59,20.59,0,0,0,12.87,10.53h-2.34a26.94,26.94,0,0,0,7.73,1.09,28.82,28.82,0,0,0,8.09-1.09h2.34a18.67,18.67,0,0,0,12.34-10.53h-2.34a22.75,22.75,0,0,0,1.39-4.13H273.53a7.41,7.41,0,0,1-3.12,4.13h2.34a9.44,9.44,0,0,1-5,1.18,9.22,9.22,0,0,1-4.56-1.18h-2.34a9,9,0,0,1-4.46-7.41V224h31v-2.44c0-.14,0-.28,0-.42h2.34a27.93,27.93,0,0,0-2.05-10.53H290A19.74,19.74,0,0,0,280,200.09ZM276,215.5H259.18a8.87,8.87,0,0,1,2-4.88h2.34a8.27,8.27,0,0,1,6.45-3,8.47,8.47,0,0,1,6.61,3h-2.34A7.77,7.77,0,0,1,276,215.5Zm-24.8,68.83h-2.34a24.21,24.21,0,0,0-10.18-2.11,24,24,0,0,0-9.93,2.11h2.34a21.41,21.41,0,0,0-10.65,10.53h-2.34a23.78,23.78,0,0,0-2.16,10c0,.17,0,.34,0,.51h-2.34a24.2,24.2,0,0,0,2.46,10.53h2.34a20.64,20.64,0,0,0,12.87,10.53H229a27.4,27.4,0,0,0,7.73,1.09,28.89,28.89,0,0,0,8.1-1.09h2.33a18.71,18.71,0,0,0,12.35-10.53h-2.34a23.54,23.54,0,0,0,1.38-4.13H244.8a7.39,7.39,0,0,1-3.11,4.13H244a9.44,9.44,0,0,1-5,1.18,9.25,9.25,0,0,1-4.56-1.18h-2.34a9,9,0,0,1-4.45-7.42v-.25h31v-2.44c0-.15,0-.28,0-.42H261a27.74,27.74,0,0,0-2-10.53h2.34A19.73,19.73,0,0,0,251.23,284.33Zm-3.92,15.41H230.46a8.73,8.73,0,0,1,2-4.88h2.34a8.23,8.23,0,0,1,6.44-2.95,8.44,8.44,0,0,1,6.61,2.95h-2.34A7.84,7.84,0,0,1,247.31,299.74Zm-89.45-15.41h-2.34A29,29,0,0,0,148,273.8h-2.34a32.34,32.34,0,0,0-41.42,0h2.34A29,29,0,0,0,99,284.33h2.34a32.13,32.13,0,0,0-2.42,10.53H96.6c0,.72-.08,1.45-.08,2.19a33.25,33.25,0,0,0,1,8.34H95.23a29.63,29.63,0,0,0,5.09,10.53h2.34a29.24,29.24,0,0,0,16,10.53h-2.34a34.63,34.63,0,0,0,17.24,0h2.34a29.24,29.24,0,0,0,16-10.53h-2.34a29.63,29.63,0,0,0,5.09-10.53H157a33.25,33.25,0,0,0,1.05-8.34c0-.74,0-1.47-.08-2.19h2.34A31.88,31.88,0,0,0,157.86,284.33ZM141.51,297a22.44,22.44,0,0,1-1.52,8.43h-2.34a13.67,13.67,0,0,1-25.44,0h2.34A22.44,22.44,0,0,1,113,297c0-.72,0-1.42.09-2.1h2.34a18.36,18.36,0,0,1,3.88-10.53H117a13.69,13.69,0,0,1,20.54,0h2.34a18.36,18.36,0,0,1,3.88,10.53h-2.34C141.47,295.54,141.51,296.24,141.51,297Zm62.69-12.63h-2.34a16.12,16.12,0,0,0-8.3-2.11,14.91,14.91,0,0,0-8.05,2.11h2.34a14.54,14.54,0,0,0-5.51,6.65v-6.65H180v-1H165.59v1h2.34v10.53h-2.34v10.53h-2.34v10.53h2.34v10.53H180V315.92h-2.34V305.39H180v-.51c0-6.36,2.93-9.5,7.07-10h2.34c3.4.51,5.42,3.52,5.42,8.42v2.11h-2.34v10.53h2.34v10.53h14.4V315.92h-2.34V305.39h2.34v-6.07a22.8,22.8,0,0,0-.43-4.46h2.34C210.23,290.19,207.85,286.49,204.2,284.33Zm-14.79,10.53a10.54,10.54,0,0,1,1.27-.09,7.47,7.47,0,0,1,1.07.09ZM329.1,198.15a22.28,22.28,0,0,0-9.89,1.94h2.34c-3.88,1.91-6.53,5.3-8,10.53h0V200.09h-2.34v-1H296.75v1h2.34v10.53h-2.34v10.53h-2.34v10.53h2.34v10.53h14.41V231.68h-2.34v-4.55a26.7,26.7,0,0,1,.58-6h2.34c1.48-6.5,6.19-9.2,17.36-8v-2.52h2.34V200.09H329.1ZM311.16,210.7v-.08h0A.24.24,0,0,1,311.16,210.7Z"/><path class="cls-1" d="M0,168.5H84.24v-5.85H0ZM0,158v2.34H84.24V158Z"/><path class="cls-1" d="M0,333.47H84.24V329.9H0Zm0-7v1.11H84.24v-1.11Z"/></g></svg>