<svg xmlns="http://www.w3.org/2000/svg" viewBox="0 0 432 432"><defs><style>.cls-1{fill:#fff;}</style></defs><g id="type"><rect class="cls-1" y="242.06" width="84.52" height="3.52"/><rect class="cls-1" x="84.52" y="146.98" width="10.56" height="10.56"/><rect class="cls-1" x="84.52" y="231.5" width="10.56" height="10.56"/><rect class="cls-1" x="84.52" y="316.02" width="10.56" height="10.56"/><path class="cls-1" d="M115.29,147H99v10.56h16.31Zm98.5,10.56h12.89a13.6,13.6,0,0,0,7.11-5.49h.34v5.49h13.94V147H231.12a9.88,9.88,0,0,1-5.87,1.77A5.56,5.56,0,0,1,221,147H205.62A12.54,12.54,0,0,0,213.79,157.54Zm53.75,0h12.78a12.7,12.7,0,0,0,7.22-6h.09v6h14.45V147H280.14a9.75,9.75,0,0,1-1.81.17,9.19,9.19,0,0,1-1.75-.17h-19.8A17.9,17.9,0,0,0,267.54,157.54Zm.31,75.14a9.32,9.32,0,0,1-4.58-1.18H247.18a20.66,20.66,0,0,0,12.92,10.56H276a18.7,18.7,0,0,0,12.38-10.56H272.84A9.51,9.51,0,0,1,267.85,232.68ZM143.1,231.5H99v10.56H143.1ZM239,317.2a9.32,9.32,0,0,1-4.58-1.18H218.36a20.67,20.67,0,0,0,12.91,10.56h15.88A18.7,18.7,0,0,0,259.53,316H244A9.51,9.51,0,0,1,239,317.2Zm-120.8,9.38h17.29a29.33,29.33,0,0,0,16-10.56H102.18A29.26,29.26,0,0,0,118.23,326.58Zm178.69-84.52h14.46V231.5H296.92ZM165.33,326.58h14.45V316H165.33Zm29.33,0h14.45V316H194.66ZM321.13,147l4.62,10.56h16.09l4-10.56ZM171.27,157.54h15.87A18.7,18.7,0,0,0,199.52,147H184a9.51,9.51,0,0,1-5,1.18,9.32,9.32,0,0,1-4.58-1.18H158.35A20.66,20.66,0,0,0,171.27,157.54Zm-3.07,75.73a5.56,5.56,0,0,1-4.3-1.77H148.57a12.54,12.54,0,0,0,8.17,10.56h12.9a13.61,13.61,0,0,0,7.1-5.49h.34v5.49H191V231.5h-17A9.88,9.88,0,0,1,168.2,233.27Zm64.51-1.77H208l4.62,10.56h16.1Zm-79.13-74L147.89,147H130.17l4.48,10.56Z"/><path class="cls-1" d="M230.36,231.5l4-10.57H219.86L218,226.51l-2.11-5.58H201.07l4.62,10.57Zm-84.2-1.36a12.26,12.26,0,0,0,.07,1.36h15.32a3.88,3.88,0,0,1-.94-2.54c0-3.21,2.45-5.58,10.82-5.58h3.3v2.45a7.12,7.12,0,0,1-3,5.67h17V220.93H150A11.94,11.94,0,0,0,146.16,230.14ZM181.66,147h15.52a23.11,23.11,0,0,0,1.38-4.14H184.79A7.41,7.41,0,0,1,181.66,147Zm36.94,0a3.88,3.88,0,0,1-.94-2.54c0-3.21,2.45-5.58,10.82-5.58h3.3v2.45a7.1,7.1,0,0,1-3,5.67h17V136.41H207a11.94,11.94,0,0,0-3.83,9.21,12.26,12.26,0,0,0,.07,1.36Zm23.76,74a24.35,24.35,0,0,0,2.47,10.57h16.1a9,9,0,0,1-4.47-7.44v-.25h31.1v-2.46c0-.14,0-.27,0-.42ZM172.1,147a9,9,0,0,1-4.47-7.44v-.25h31.1v-2.46c0-.14,0-.27,0-.42H153.53A24.32,24.32,0,0,0,156,147Zm41.44,158.47A24.35,24.35,0,0,0,216,316h16.1a9,9,0,0,1-4.47-7.44v-.26h31.1v-2.45c0-.14,0-.27,0-.42Zm81-73.95H309v-4.57a27,27,0,0,1,.58-6h-15ZM241.67,316h15.52a23,23,0,0,0,1.38-4.15H244.8A7.43,7.43,0,0,1,241.67,316Zm-49.36,0h14.45V305.45H192.31Zm-67.78-1.86a13.24,13.24,0,0,1-12.76-8.71h-17A29.59,29.59,0,0,0,99.83,316h49.39a29.59,29.59,0,0,0,5.1-10.57h-17A13.23,13.23,0,0,1,124.53,314.16ZM163,316h14.45V305.45H163Zm170-179.61L331.09,142,329,136.41H314.15L318.78,147h24.67l3.95-10.57ZM140.75,229H112.94v-8H96.63V231.5h44.12Zm4.79-82-5.7-10.57h-16.5L127.82,147Zm-32.6-10.57H96.63V147h16.31ZM274.23,147c-4.2-.8-7.36-4.51-7.6-10.57H252.42a29.69,29.69,0,0,0,2,10.57Zm25.5-10.57H285.26c-.13,6.09-3.18,9.77-7.46,10.57h21.93ZM270.49,231.5H286a23,23,0,0,0,1.38-4.15H273.62A7.43,7.43,0,0,1,270.49,231.5Z"/><path class="cls-1" d="M236.66,220.93l4-10.56h-14.9l-3.52,10.56Zm-63-5.49c-10.82,0-17.6,2.05-21.36,5.49H191v-6.68a20.81,20.81,0,0,0-.35-3.88H176.06a6.54,6.54,0,0,1,1,3.71v1.36Zm29.72,5.49h14.82l-4-10.56H198.79ZM165.1,210.37H150.71a15.72,15.72,0,0,0-.26,2.62h13.69A5.33,5.33,0,0,1,165.1,210.37Zm-52.43,84.52H96.1c0,.72-.08,1.45-.08,2.19a33,33,0,0,0,1.06,8.37h17a22.31,22.31,0,0,1-1.52-8.45C112.59,296.28,112.62,295.57,112.67,294.89Zm88.39-158.48A27.71,27.71,0,0,0,199,125.85H185.48a7.78,7.78,0,0,1,1.82,4.9H170.4a8.83,8.83,0,0,1,2-4.9H158a23.77,23.77,0,0,0-2.17,10.05c0,.18,0,.34,0,.51Zm110.32,74v-.08H296.92v10.56h15c1.49-6.51,6.21-9.23,17.42-8v-2.53h-18A.24.24,0,0,0,311.38,210.45Zm-65.89,84.44a7.78,7.78,0,0,1,1.82,4.9h-16.9a8.83,8.83,0,0,1,2-4.9H218a23.77,23.77,0,0,0-2.17,10.05c0,.18,0,.34,0,.51h45.18A27.71,27.71,0,0,0,259,294.89Zm-104.67-161a18.72,18.72,0,0,0,8.76-8H99v10.56h16.31v-.59h10.15l.25.59h16.5Zm133.49,76.49a7.78,7.78,0,0,1,1.82,4.9h-16.9a8.83,8.83,0,0,1,2-4.9H246.86a23.77,23.77,0,0,0-2.17,10c0,.18,0,.34,0,.51h45.18a27.71,27.71,0,0,0-2.06-10.56Zm-43.56-79.45c-10.83,0-17.6,2.05-21.36,5.49h38.68v-6.68a20.81,20.81,0,0,0-.35-3.88H233.11a6.54,6.54,0,0,1,1,3.71v1.36Zm-89.68,164c.05.68.09,1.39.09,2.11a22.31,22.31,0,0,1-1.53,8.45h17a33,33,0,0,0,1.06-8.37c0-.74,0-1.47-.08-2.19Zm48.15,0c3.41.51,5.44,3.53,5.44,8.45v2.11h14.45v-6.09a23.7,23.7,0,0,0-.43-4.47Zm-23.89,10.56h14.45v-.51c0-6.38,2.94-9.53,7.09-10.05H165.33ZM338.8,125.85l-3.51,10.56h14.46l3.95-10.56ZM99,220.93h16.31V210.37H99Zm188.65-85.45V136c0,.14,0,.28,0,.42h14.47V125.85H282.85C285.7,127.51,287.57,130.87,287.63,135.48Zm24.25-9.63,4.62,10.56h14.83l-4-10.56ZM269,136.41c0-.25,0-.5,0-.76,0-4.74,1.93-8.13,4.83-9.8H256.34a29.23,29.23,0,0,0-1.59,9.8c0,.26,0,.51,0,.76Zm-46.82-10.56H207.76a15.72,15.72,0,0,0-.26,2.62h13.69A5.33,5.33,0,0,1,222.15,125.85Z"/><path class="cls-1" d="M196.52,199.8l4.62,10.57H216.6l-4-10.57Zm-23.6,8.11c2.55,0,4.43.88,5.49,2.46H193a13.87,13.87,0,0,0-8.38-10.57H161.85c-4.68,2.07-7.91,5.63-8.79,10.57h14.39A6.38,6.38,0,0,1,172.92,207.91Zm55.14,2.46H243l4-10.57H231.57Zm52-10.57H259.9a21.45,21.45,0,0,0-10.69,10.57h14.35a8.27,8.27,0,0,1,6.47-3,8.48,8.48,0,0,1,6.63,3h13.52A19.82,19.82,0,0,0,280.07,199.8ZM154.16,116.89c0-.55,0-1.08-.09-1.61h-16a6.51,6.51,0,0,1,.2,1.61c0,4.22-3.21,7.35-7.69,7.35H117.64v-9H101.33v10.57h50.59A18.51,18.51,0,0,0,154.16,116.89Zm49.9,167.43h-16.4a14.6,14.6,0,0,0-5.53,6.68v-6.68H167.67v10.57h21.55a10.71,10.71,0,0,1,1.28-.09,7.47,7.47,0,0,1,1.07.09H211C210.11,290.2,207.72,286.49,204.06,284.32Zm95.21-73.95h14.45V199.8H299.27Zm-18.59-85.71a8.84,8.84,0,0,1,4.52,1.19h19.23V115.28H290v4.56h-.17a10.6,10.6,0,0,0-4.64-4.56H267.52a18.57,18.57,0,0,0-8.83,10.57h17.44A9,9,0,0,1,280.68,124.66ZM251.25,284.32H231.07a21.47,21.47,0,0,0-10.68,10.57h14.35a8.27,8.27,0,0,1,6.47-3,8.48,8.48,0,0,1,6.63,3h13.52A19.82,19.82,0,0,0,251.25,284.32Zm-111.73,0a18.4,18.4,0,0,1,3.9,10.57H160a32.69,32.69,0,0,0-2.43-10.57Zm174.23-73.95h18V199.8H321.8C317.91,201.72,315.25,205.12,313.75,210.37Zm30.91-95.09-3.51,10.57h14.9L360,115.28ZM98.44,294.89H115a18.47,18.47,0,0,1,3.9-10.57h-18A32.44,32.44,0,0,0,98.44,294.89ZM230,123.39c2.55,0,4.43.88,5.49,2.46h14.61a13.87,13.87,0,0,0-8.38-10.57H218.9c-4.68,2.07-7.91,5.63-8.79,10.57h14.38A6.42,6.42,0,0,1,230,123.39Zm99.71,2.46-4-10.57H309.6l4.63,10.57Zm-212,74H101.33v10.57h16.31Zm63.56-76.91a8.48,8.48,0,0,1,6.63,3h13.52a19.82,19.82,0,0,0-10.11-10.57H171.07a21.45,21.45,0,0,0-10.69,10.57h14.35A8.27,8.27,0,0,1,181.2,122.89Z"/><path class="cls-1" d="M228.73,284.32H248.9a24.35,24.35,0,0,0-10.21-2.11A24.1,24.1,0,0,0,228.73,284.32Zm-63.4,0h14.45v-1H165.33Zm-17.67-10.56H106.09a29,29,0,0,0-7.56,10.56h18a13.74,13.74,0,0,1,20.61,0h18A29.12,29.12,0,0,0,147.66,273.76Zm149.26-74h14.46v-1H296.92Zm-103.19-1,.44,1h16.08l-.38-1Zm148.92-84.51-.34,1h15.34l.38-1Zm-85.1,85.53h20.17a24.35,24.35,0,0,0-10.21-2.11A24.1,24.1,0,0,0,257.55,199.8Zm71.83,0v-1.94a22.29,22.29,0,0,0-9.93,1.94ZM185.31,284.32h16.4a16.2,16.2,0,0,0-8.32-2.11A15,15,0,0,0,185.31,284.32Zm138-169-.39-1H306.81l.45,1Zm-208-5.07h12.94c3.83,0,6.73,2.05,7.49,5.07h16a17.32,17.32,0,0,0-4.66-10.56H99v10.56h16.31Zm112.41,3a27.82,27.82,0,0,0-11.15,2.11h22.79A28.56,28.56,0,0,0,227.7,113.17Zm37.47,2.11h17.66a18.35,18.35,0,0,0-8.56-2.11A19.64,19.64,0,0,0,265.17,115.28Zm36.91-10.56H287.63v10.56h14.45ZM229.23,199.8h15.34l.38-1H229.56Zm-69.73,0h22.79a28.56,28.56,0,0,0-11.64-2.11A27.82,27.82,0,0,0,159.5,199.8Zm19.18-86.63a24.1,24.1,0,0,0-10,2.11h20.17A24.35,24.35,0,0,0,178.68,113.17Zm-63.39,76.07H99V199.8h16.31Z"/><path class="cls-1" d="M285.28,98.37v6.35h14.45V98.37ZM103.74,273.76h41.57a32.45,32.45,0,0,0-41.57,0Zm9.2-90.87H96.63v6.35h16.31Zm15.73-84.52h-32v6.35h48.09C141,100.77,135.36,98.37,128.67,98.37Z"/><path class="cls-1" d="M224.34,157.54h-12.9a16.14,16.14,0,0,0,6,1.1A20.53,20.53,0,0,0,224.34,157.54Zm-47.67,1.1a29,29,0,0,0,8.12-1.1H168.92A27.13,27.13,0,0,0,176.67,158.64Zm95.25,0a17.41,17.41,0,0,0,6.05-1.1H265.19A20.34,20.34,0,0,0,271.92,158.64Zm51.48-1.1.93,2.12a10.71,10.71,0,0,1-7.53,3.12c-2.36,0-5.15-.5-10.56-3.29v8.62H334a28.43,28.43,0,0,0,4.91-8.88l.64-1.69Zm-57.9,85.62a29,29,0,0,0,8.12-1.1H257.75A27.13,27.13,0,0,0,265.5,243.16Zm-105.14,0a20.53,20.53,0,0,0,6.93-1.1h-12.9A16.14,16.14,0,0,0,160.36,243.16Zm-35.83,84.52a33.69,33.69,0,0,0,8.64-1.1H115.88A33.71,33.71,0,0,0,124.53,327.68Zm112.15,0a29,29,0,0,0,8.12-1.1H228.93A27.13,27.13,0,0,0,236.68,327.68Zm-25.44-83.5a10.69,10.69,0,0,1-7.52,3.12c-2.37,0-5.16-.5-10.57-3.29v8.62h27.72a28.43,28.43,0,0,0,4.91-8.88l.63-1.69H210.32Z"/><path class="cls-1" d="M190.8,257.87a25.15,25.15,0,0,0,10.66,2.28c7.16,0,12.9-2.57,17.06-7.52H190.8Zm113.09-89.76v5.24a25.14,25.14,0,0,0,10.65,2.28c7.17,0,12.91-2.57,17.06-7.52Z"/><polygon class="cls-1" points="0 157.54 0 160.06 84.52 160.06 84.52 162.06 0 162.06 0 168.11 84.52 168.11 84.52 157.54 0 157.54"/><polygon class="cls-1" points="0 326.58 0 330.23 84.52 330.23 84.52 332.23 0 332.23 0 333.63 84.52 333.63 84.52 326.58 0 326.58"/></g></svg>